<svg xmlns="http://www.w3.org/2000/svg" xmlns:xlink="http://www.w3.org/1999/xlink" width="500" zoomAndPan="magnify" viewBox="0 0 375 254.250006" height="339" preserveAspectRatio="xMidYMid meet" version="1.0"><defs><g/><clipPath id="76ea80b230"><path d="M 245 135 L 363 135 L 363 153 L 245 153 Z M 245 135 " clip-rule="nonzero"/></clipPath><clipPath id="5bc6158827"><path d="M 239.480469 99.394531 L 374.230469 108.199219 L 368.8125 191.125 L 234.0625 182.316406 Z M 239.480469 99.394531 " clip-rule="nonzero"/></clipPath><clipPath id="e1d051f9f2"><path d="M 239.480469 99.394531 L 374.230469 108.199219 L 368.8125 191.125 L 234.0625 182.316406 Z M 239.480469 99.394531 " clip-rule="nonzero"/></clipPath><clipPath id="6c660d78fc"><path d="M 14 112 L 132 112 L 132 128 L 14 128 Z M 14 112 " clip-rule="nonzero"/></clipPath><clipPath id="64505cd388"><path d="M 134.933594 167.808594 L 0.765625 152.496094 L 10.191406 69.933594 L 144.355469 85.246094 Z M 134.933594 167.808594 " clip-rule="nonzero"/></clipPath><clipPath id="f7032256b3"><path d="M 134.933594 167.808594 L 0.765625 152.496094 L 10.191406 69.933594 L 144.355469 85.246094 Z M 134.933594 167.808594 " clip-rule="nonzero"/></clipPath></defs><g clip-path="url(#76ea80b230)"><g clip-path="url(#5bc6158827)"><g clip-path="url(#e1d051f9f2)"><path fill="#332111" d="M 362.253906 148.007812 C 362.300781 148.148438 362.320312 148.289062 362.3125 148.402344 C 362.277344 148.929688 361.804688 149.34375 361.277344 149.308594 C 360.75 149.273438 360.335938 148.800781 360.367188 148.273438 C 360.386719 147.96875 360.546875 147.699219 360.78125 147.519531 C 355.332031 139.132812 341.695312 136.625 325.65625 137.109375 C 298.863281 137.953125 265.40625 147.28125 251.40625 152 C 250.890625 152.1875 250.4375 152.300781 249.988281 152.382812 C 248.828125 152.613281 247.886719 152.523438 247.210938 152.226562 C 246.449219 151.898438 245.980469 151.394531 245.769531 150.792969 C 245.722656 150.679688 245.699219 150.566406 245.679688 150.480469 C 245.613281 150.171875 245.828125 149.90625 246.109375 149.839844 C 246.421875 149.777344 246.6875 149.988281 246.75 150.273438 C 246.773438 150.332031 246.773438 150.386719 246.796875 150.445312 C 246.914062 150.757812 247.148438 151.023438 247.609375 151.222656 C 248.097656 151.421875 248.816406 151.496094 249.777344 151.308594 C 250.148438 151.21875 250.601562 151.109375 251.054688 150.972656 C 265.113281 146.230469 298.710938 136.882812 325.644531 136.023438 C 342.546875 135.507812 356.835938 138.3125 362.214844 147.726562 C 362.265625 147.8125 362.289062 147.898438 362.285156 147.980469 Z M 362.253906 148.007812 " fill-opacity="1" fill-rule="evenodd"/></g></g></g><g fill="#332111" fill-opacity="1"><g transform="translate(121.935526, 136.72123)"><g><path d="M 53.140625 -9.515625 C 50.535156 -8.660156 47.867188 -7.875 45.140625 -7.15625 C 42.421875 -6.4375 39.6875 -5.757812 36.9375 -5.125 C 33.96875 -4.40625 30.972656 -3.726562 27.953125 -3.09375 C 24.941406 -2.46875 21.925781 -1.84375 18.90625 -1.21875 C 18.320312 -1.082031 17.710938 -0.957031 17.078125 -0.84375 C 16.453125 -0.726562 15.820312 -0.628906 15.1875 -0.546875 C 14.46875 -0.410156 13.972656 -0.0234375 13.703125 0.609375 C 11.898438 5.609375 10.007812 10.570312 8.03125 15.5 C 6.050781 20.425781 4.1875 25.390625 2.4375 30.390625 C 1.394531 33.273438 0.320312 36.175781 -0.78125 39.09375 C -1.882812 42.019531 -3.132812 44.878906 -4.53125 47.671875 C -4.570312 47.722656 -4.601562 47.78125 -4.625 47.84375 C -4.644531 47.914062 -4.679688 47.992188 -4.734375 48.078125 C -5.046875 48.660156 -5.28125 49.007812 -5.4375 49.125 C -5.59375 49.238281 -5.875 49.207031 -6.28125 49.03125 C -6.863281 48.800781 -7.253906 48.539062 -7.453125 48.25 C -7.660156 47.957031 -7.675781 47.519531 -7.5 46.9375 C -7.269531 46.164062 -7.03125 45.429688 -6.78125 44.734375 C -6.539062 44.035156 -6.285156 43.328125 -6.015625 42.609375 C -4.484375 38.648438 -2.960938 34.695312 -1.453125 30.75 C 0.0546875 26.8125 1.578125 22.882812 3.109375 18.96875 C 4.273438 16 5.207031 12.972656 5.90625 9.890625 C 6.601562 6.804688 7.242188 3.710938 7.828125 0.609375 C 7.921875 0.0234375 7.921875 -0.320312 7.828125 -0.4375 C 7.742188 -0.550781 7.410156 -0.695312 6.828125 -0.875 C 5.691406 -1.238281 4.640625 -1.710938 3.671875 -2.296875 C 2.710938 -2.878906 1.828125 -3.597656 1.015625 -4.453125 C 0.296875 -5.265625 -0.238281 -6.15625 -0.59375 -7.125 C -0.957031 -8.09375 -1.164062 -9.09375 -1.21875 -10.125 C -1.300781 -12.238281 -1.039062 -14.253906 -0.4375 -16.171875 C 0.164062 -18.085938 1.234375 -19.8125 2.765625 -21.34375 C 3.847656 -22.414062 4.992188 -22.941406 6.203125 -22.921875 C 7.421875 -22.898438 8.570312 -22.347656 9.65625 -21.265625 C 10.0625 -20.816406 10.332031 -20.59375 10.46875 -20.59375 C 10.601562 -20.59375 10.894531 -20.773438 11.34375 -21.140625 C 13.550781 -23.160156 15.664062 -25.265625 17.6875 -27.453125 C 19.71875 -29.640625 21.65625 -31.898438 23.5 -34.234375 C 23.769531 -34.554688 23.992188 -34.90625 24.171875 -35.28125 C 24.359375 -35.664062 24.539062 -36.039062 24.71875 -36.40625 C 25.84375 -39.195312 26.957031 -41.984375 28.0625 -44.765625 C 29.164062 -47.554688 30.347656 -50.328125 31.609375 -53.078125 C 31.921875 -53.796875 32.242188 -54.515625 32.578125 -55.234375 C 32.921875 -55.960938 33.316406 -56.640625 33.765625 -57.265625 C 34.171875 -57.847656 34.492188 -58.207031 34.734375 -58.34375 C 34.984375 -58.476562 35.3125 -58.476562 35.71875 -58.34375 C 36.625 -58.03125 37.078125 -57.175781 37.078125 -55.78125 C 36.890625 -54.65625 36.601562 -53.460938 36.21875 -52.203125 C 35.84375 -50.941406 35.40625 -49.703125 34.90625 -48.484375 C 33.96875 -46.140625 32.867188 -43.898438 31.609375 -41.765625 C 30.347656 -39.628906 28.972656 -37.570312 27.484375 -35.59375 C 27.035156 -35.007812 26.6875 -34.390625 26.4375 -33.734375 C 26.1875 -33.078125 25.953125 -32.410156 25.734375 -31.734375 C 24.335938 -28.003906 22.941406 -24.25 21.546875 -20.46875 C 20.148438 -16.6875 18.753906 -12.898438 17.359375 -9.109375 C 17.046875 -8.347656 16.738281 -7.570312 16.4375 -6.78125 C 16.144531 -6 15.863281 -5.222656 15.59375 -4.453125 C 15.320312 -3.691406 15.242188 -3.242188 15.359375 -3.109375 C 15.472656 -2.972656 15.9375 -2.972656 16.75 -3.109375 C 17.425781 -3.191406 18.085938 -3.289062 18.734375 -3.40625 C 19.390625 -3.519531 20.035156 -3.644531 20.671875 -3.78125 C 24.765625 -4.632812 28.847656 -5.507812 32.921875 -6.40625 C 36.992188 -7.3125 41.054688 -8.257812 45.109375 -9.25 C 46.367188 -9.5625 47.617188 -9.882812 48.859375 -10.21875 C 50.097656 -10.5625 51.328125 -10.890625 52.546875 -11.203125 C 53.171875 -11.335938 53.707031 -11.25 54.15625 -10.9375 C 54.382812 -10.757812 54.488281 -10.566406 54.46875 -10.359375 C 54.445312 -10.160156 54.300781 -9.992188 54.03125 -9.859375 C 53.894531 -9.816406 53.757812 -9.757812 53.625 -9.6875 C 53.488281 -9.625 53.328125 -9.566406 53.140625 -9.515625 Z M 5.8125 -20.734375 C 4.726562 -19.878906 3.914062 -18.890625 3.375 -17.765625 C 2.832031 -16.640625 2.453125 -15.398438 2.234375 -14.046875 C 3.398438 -14.671875 4.476562 -15.351562 5.46875 -16.09375 C 6.457031 -16.84375 7.425781 -17.644531 8.375 -18.5 C 8.820312 -18.90625 8.800781 -19.628906 8.3125 -20.671875 C 8.125 -21.023438 7.90625 -21.210938 7.65625 -21.234375 C 7.414062 -21.253906 7.140625 -21.222656 6.828125 -21.140625 C 6.640625 -21.085938 6.46875 -21.023438 6.3125 -20.953125 C 6.15625 -20.890625 5.988281 -20.816406 5.8125 -20.734375 Z M 9.390625 -12.359375 C 9.390625 -12.765625 9.390625 -13.144531 9.390625 -13.5 C 9.390625 -13.863281 9.390625 -14.203125 9.390625 -14.515625 C 9.335938 -15.015625 9.242188 -15.304688 9.109375 -15.390625 C 8.984375 -15.484375 8.691406 -15.375 8.234375 -15.0625 C 7.296875 -14.34375 6.316406 -13.65625 5.296875 -13 C 4.285156 -12.34375 3.238281 -11.769531 2.15625 -11.28125 C 1.84375 -11.1875 1.640625 -10.914062 1.546875 -10.46875 C 1.234375 -8.53125 1.648438 -6.796875 2.796875 -5.265625 C 3.953125 -3.734375 5.492188 -2.859375 7.421875 -2.640625 C 7.960938 -2.585938 8.300781 -2.851562 8.4375 -3.4375 C 8.664062 -4.925781 8.867188 -6.425781 9.046875 -7.9375 C 9.222656 -9.445312 9.335938 -10.921875 9.390625 -12.359375 Z M 12.359375 -4.1875 C 13.578125 -7.382812 14.789062 -10.554688 16 -13.703125 C 17.21875 -16.859375 18.4375 -20.007812 19.65625 -23.15625 C 19.925781 -23.832031 20.179688 -24.519531 20.421875 -25.21875 C 20.671875 -25.914062 20.953125 -26.691406 21.265625 -27.546875 C 20.867188 -27.273438 20.554688 -27.015625 20.328125 -26.765625 C 20.097656 -26.523438 19.875 -26.289062 19.65625 -26.0625 C 18.664062 -24.9375 17.648438 -23.820312 16.609375 -22.71875 C 15.578125 -21.613281 14.472656 -20.566406 13.296875 -19.578125 C 12.628906 -18.953125 12.132812 -18.3125 11.8125 -17.65625 C 11.5 -17.007812 11.410156 -16.164062 11.546875 -15.125 C 11.773438 -13.375 11.796875 -11.617188 11.609375 -9.859375 C 11.429688 -8.097656 11.253906 -6.320312 11.078125 -4.53125 C 11.023438 -4.207031 10.941406 -3.84375 10.828125 -3.4375 C 10.722656 -3.039062 10.828125 -2.796875 11.140625 -2.703125 C 11.640625 -2.566406 11.929688 -2.703125 12.015625 -3.109375 C 12.109375 -3.515625 12.222656 -3.875 12.359375 -4.1875 Z M 12.359375 -4.1875 "/></g></g></g><g fill="#332111" fill-opacity="1"><g transform="translate(174.465257, 136.72123)"><g><path d="M 21.46875 25.9375 C 20.34375 27.0625 18.976562 27.554688 17.375 27.421875 C 15.78125 27.285156 14.515625 26.5625 13.578125 25.25 C 13.128906 24.582031 12.769531 23.875 12.5 23.125 C 12.226562 22.382812 11.976562 21.65625 11.75 20.9375 C 11.34375 19.363281 11.101562 17.765625 11.03125 16.140625 C 10.96875 14.515625 11.023438 12.894531 11.203125 11.28125 C 11.429688 8.894531 11.75 6.53125 12.15625 4.1875 C 12.5625 1.84375 13.054688 -0.472656 13.640625 -2.765625 C 13.734375 -3.128906 13.820312 -3.5 13.90625 -3.875 C 14 -4.257812 14 -4.675781 13.90625 -5.125 C 13.59375 -4.769531 13.332031 -4.398438 13.125 -4.015625 C 12.925781 -3.628906 12.71875 -3.257812 12.5 -2.90625 C 11.457031 -1.101562 10.347656 0.671875 9.171875 2.421875 C 8.003906 4.179688 6.679688 5.847656 5.203125 7.421875 C 4.390625 8.234375 3.507812 8.976562 2.5625 9.65625 C 1.75 10.238281 0.90625 10.585938 0.03125 10.703125 C -0.84375 10.816406 -1.734375 10.785156 -2.640625 10.609375 C -3.804688 10.335938 -4.644531 9.785156 -5.15625 8.953125 C -5.675781 8.117188 -6.050781 7.179688 -6.28125 6.140625 C -6.457031 5.335938 -6.535156 4.53125 -6.515625 3.71875 C -6.492188 2.90625 -6.4375 2.09375 -6.34375 1.28125 C -5.894531 -1.332031 -5.21875 -3.851562 -4.3125 -6.28125 C -3.414062 -8.707031 -2.160156 -10.976562 -0.546875 -13.09375 C -0.179688 -13.59375 0.210938 -13.976562 0.640625 -14.25 C 1.066406 -14.519531 1.597656 -14.539062 2.234375 -14.3125 C 2.816406 -14.132812 3.148438 -13.941406 3.234375 -13.734375 C 3.328125 -13.535156 3.21875 -13.191406 2.90625 -12.703125 C 2.5 -11.972656 2.101562 -11.257812 1.71875 -10.5625 C 1.332031 -9.863281 0.960938 -9.15625 0.609375 -8.4375 C -1.148438 -4.75 -2.300781 -0.898438 -2.84375 3.109375 C -2.925781 3.960938 -2.945312 4.816406 -2.90625 5.671875 C -2.863281 6.523438 -2.679688 7.378906 -2.359375 8.234375 C -2.085938 8.816406 -1.828125 9.164062 -1.578125 9.28125 C -1.335938 9.394531 -0.925781 9.335938 -0.34375 9.109375 C 0.5625 8.753906 1.363281 8.296875 2.0625 7.734375 C 2.757812 7.171875 3.421875 6.550781 4.046875 5.875 C 5.710938 4.113281 7.234375 2.253906 8.609375 0.296875 C 9.984375 -1.660156 11.253906 -3.695312 12.421875 -5.8125 C 13.273438 -7.25 14.109375 -8.722656 14.921875 -10.234375 C 15.734375 -11.742188 16.429688 -13.285156 17.015625 -14.859375 C 17.191406 -15.347656 17.40625 -15.640625 17.65625 -15.734375 C 17.90625 -15.828125 18.253906 -15.828125 18.703125 -15.734375 C 19.109375 -15.640625 19.367188 -15.476562 19.484375 -15.25 C 19.597656 -15.03125 19.609375 -14.648438 19.515625 -14.109375 C 19.242188 -12.710938 18.960938 -11.296875 18.671875 -9.859375 C 18.378906 -8.421875 18.050781 -6.976562 17.6875 -5.53125 C 17.101562 -2.832031 16.570312 -0.132812 16.09375 2.5625 C 15.625 5.269531 15.28125 8.019531 15.0625 10.8125 C 14.882812 13.0625 14.882812 15.3125 15.0625 17.5625 C 15.238281 19.8125 15.6875 22.015625 16.40625 24.171875 C 16.769531 25.253906 17.15625 25.851562 17.5625 25.96875 C 17.96875 26.082031 18.570312 25.734375 19.375 24.921875 C 20.007812 24.285156 20.570312 23.597656 21.0625 22.859375 C 21.5625 22.117188 22.015625 21.363281 22.421875 20.59375 C 23.992188 17.53125 25.351562 14.390625 26.5 11.171875 C 27.65625 7.953125 28.703125 4.703125 29.640625 1.421875 C 30.273438 -0.742188 30.882812 -2.914062 31.46875 -5.09375 C 32.050781 -7.28125 32.566406 -9.476562 33.015625 -11.6875 C 33.203125 -12.539062 33.269531 -13.414062 33.21875 -14.3125 C 33.175781 -15.125 33.1875 -15.9375 33.25 -16.75 C 33.320312 -17.5625 33.492188 -18.347656 33.765625 -19.109375 C 33.992188 -19.742188 34.238281 -20.128906 34.5 -20.265625 C 34.769531 -20.398438 35.175781 -20.398438 35.71875 -20.265625 C 36.21875 -20.171875 36.519531 -20.019531 36.625 -19.8125 C 36.738281 -19.613281 36.753906 -19.175781 36.671875 -18.5 C 36.578125 -17.6875 36.539062 -16.882812 36.5625 -16.09375 C 36.59375 -15.3125 36.628906 -14.515625 36.671875 -13.703125 C 36.753906 -12.898438 36.882812 -12.125 37.0625 -11.375 C 37.25 -10.632812 37.523438 -9.90625 37.890625 -9.1875 C 39.148438 -6.75 41.148438 -5.578125 43.890625 -5.671875 C 45.148438 -5.710938 46.390625 -5.898438 47.609375 -6.234375 C 48.828125 -6.578125 50 -7.039062 51.125 -7.625 C 52.15625 -8.125 53.164062 -8.65625 54.15625 -9.21875 C 55.144531 -9.78125 56.132812 -10.375 57.125 -11 C 57.257812 -11.09375 57.394531 -11.160156 57.53125 -11.203125 C 57.664062 -11.253906 57.800781 -11.300781 57.9375 -11.34375 C 58.519531 -11.519531 58.90625 -11.429688 59.09375 -11.078125 C 59.175781 -10.898438 59.148438 -10.726562 59.015625 -10.5625 C 58.878906 -10.40625 58.75 -10.285156 58.625 -10.203125 C 56.957031 -8.804688 55.175781 -7.585938 53.28125 -6.546875 C 51.394531 -5.515625 49.320312 -4.816406 47.0625 -4.453125 C 46.03125 -4.316406 44.992188 -4.257812 43.953125 -4.28125 C 42.921875 -4.3125 41.890625 -4.460938 40.859375 -4.734375 C 39.097656 -5.128906 37.566406 -5.984375 36.265625 -7.296875 C 36.128906 -7.472656 35.984375 -7.660156 35.828125 -7.859375 C 35.671875 -8.066406 35.457031 -8.328125 35.1875 -8.640625 C 34.820312 -7.160156 34.46875 -5.765625 34.125 -4.453125 C 33.789062 -3.148438 33.46875 -1.867188 33.15625 -0.609375 C 32.707031 1.367188 32.132812 3.316406 31.4375 5.234375 C 30.738281 7.148438 30.03125 9.070312 29.3125 11 C 28.59375 12.9375 27.789062 14.847656 26.90625 16.734375 C 26.03125 18.628906 25.078125 20.503906 24.046875 22.359375 C 23.679688 22.984375 23.285156 23.597656 22.859375 24.203125 C 22.429688 24.816406 21.96875 25.394531 21.46875 25.9375 Z M 21.46875 25.9375 "/></g></g></g><g fill="#332111" fill-opacity="1"><g transform="translate(231.991387, 136.72123)"><g><path d="M -1.953125 30.046875 C -3.078125 32.660156 -4.210938 35.316406 -5.359375 38.015625 C -6.515625 40.722656 -7.789062 43.335938 -9.1875 45.859375 C -11.03125 49.273438 -13.007812 52.613281 -15.125 55.875 C -17.238281 59.144531 -19.691406 62.175781 -22.484375 64.96875 C -24.054688 66.582031 -25.742188 68.050781 -27.546875 69.375 C -29.347656 70.707031 -31.304688 71.78125 -33.421875 72.59375 C -39.816406 75.113281 -45.851562 74.484375 -51.53125 70.703125 C -52.925781 69.753906 -54.003906 68.601562 -54.765625 67.25 C -55.535156 65.90625 -56.1875 64.488281 -56.71875 63 C -57.582031 60.570312 -58.023438 58.117188 -58.046875 55.640625 C -58.066406 53.171875 -57.804688 50.675781 -57.265625 48.15625 C -56.640625 45.226562 -55.628906 42.515625 -54.234375 40.015625 C -52.835938 37.515625 -51.210938 35.140625 -49.359375 32.890625 C -46.171875 29.054688 -42.628906 25.722656 -38.734375 22.890625 C -34.835938 20.054688 -30.660156 17.601562 -26.203125 15.53125 C -23.097656 14.09375 -19.910156 12.921875 -16.640625 12.015625 C -13.378906 11.117188 -10.039062 10.515625 -6.625 10.203125 C -5.363281 10.109375 -4.113281 10.070312 -2.875 10.09375 C -1.632812 10.113281 -0.382812 10.171875 0.875 10.265625 C 1.550781 10.304688 1.96875 10.28125 2.125 10.1875 C 2.28125 10.101562 2.472656 9.769531 2.703125 9.1875 C 4.191406 5.71875 5.765625 2.296875 7.421875 -1.078125 C 9.085938 -4.453125 10.890625 -7.738281 12.828125 -10.9375 C 13.054688 -11.300781 13.28125 -11.648438 13.5 -11.984375 C 13.726562 -12.328125 13.863281 -12.722656 13.90625 -13.171875 C 13.101562 -12.722656 12.375 -12.179688 11.71875 -11.546875 C 11.0625 -10.921875 10.394531 -10.289062 9.71875 -9.65625 C 8.320312 -8.257812 6.925781 -6.835938 5.53125 -5.390625 C 4.132812 -3.953125 2.71875 -2.5625 1.28125 -1.21875 C 0.789062 -0.769531 0.207031 -0.363281 -0.46875 0 C -1.550781 0.582031 -2.578125 0.570312 -3.546875 -0.03125 C -4.515625 -0.644531 -4.976562 -1.554688 -4.9375 -2.765625 C -4.9375 -3.804688 -4.753906 -4.785156 -4.390625 -5.703125 C -4.023438 -6.628906 -3.617188 -7.519531 -3.171875 -8.375 C -1.054688 -12.425781 1.800781 -15.710938 5.40625 -18.234375 C 5.894531 -18.597656 6.410156 -18.898438 6.953125 -19.140625 C 7.492188 -19.390625 8.054688 -19.601562 8.640625 -19.78125 C 10.671875 -20.457031 12.609375 -20.125 14.453125 -18.78125 C 14.804688 -18.457031 15.097656 -18.316406 15.328125 -18.359375 C 15.554688 -18.410156 15.828125 -18.550781 16.140625 -18.78125 C 16.640625 -19.226562 17.144531 -19.640625 17.65625 -20.015625 C 18.175781 -20.398438 18.707031 -20.773438 19.25 -21.140625 C 19.65625 -21.410156 20.304688 -21.5 21.203125 -21.40625 C 22.109375 -21.3125 22.71875 -21.109375 23.03125 -20.796875 C 23.207031 -20.617188 23.269531 -20.460938 23.21875 -20.328125 C 23.175781 -20.191406 23.113281 -20.078125 23.03125 -19.984375 C 22.757812 -19.628906 22.476562 -19.269531 22.1875 -18.90625 C 21.894531 -18.550781 21.632812 -18.191406 21.40625 -17.828125 C 20.101562 -15.890625 18.851562 -13.929688 17.65625 -11.953125 C 16.46875 -9.972656 15.332031 -7.945312 14.25 -5.875 C 12.988281 -3.488281 11.769531 -1.082031 10.59375 1.34375 C 9.425781 3.78125 8.28125 6.210938 7.15625 8.640625 C 6.75 9.492188 6.507812 10.085938 6.4375 10.421875 C 6.375 10.765625 6.507812 10.96875 6.84375 11.03125 C 7.1875 11.101562 7.765625 11.207031 8.578125 11.34375 C 9.929688 11.476562 11.257812 11.757812 12.5625 12.1875 C 13.863281 12.613281 15.144531 13.078125 16.40625 13.578125 C 16.40625 13.578125 16.5 13.617188 16.6875 13.703125 C 16.769531 13.796875 16.890625 13.882812 17.046875 13.96875 C 17.203125 14.0625 17.238281 14.203125 17.15625 14.390625 C 17.101562 14.566406 17 14.664062 16.84375 14.6875 C 16.6875 14.707031 16.539062 14.71875 16.40625 14.71875 C 15.78125 14.632812 15.160156 14.554688 14.546875 14.484375 C 13.941406 14.421875 13.328125 14.34375 12.703125 14.25 C 11.660156 14.070312 10.617188 13.890625 9.578125 13.703125 C 8.546875 13.523438 7.515625 13.320312 6.484375 13.09375 C 5.710938 12.914062 5.171875 13.234375 4.859375 14.046875 C 3.734375 16.703125 2.609375 19.367188 1.484375 22.046875 C 0.359375 24.722656 -0.785156 27.390625 -1.953125 30.046875 Z M 12.96875 -16.203125 C 13.101562 -16.296875 13.222656 -16.398438 13.328125 -16.515625 C 13.441406 -16.628906 13.457031 -16.773438 13.375 -16.953125 C 13.238281 -17.265625 12.945312 -17.46875 12.5 -17.5625 C 12.226562 -17.5625 11.96875 -17.515625 11.71875 -17.421875 C 11.46875 -17.328125 11.226562 -17.238281 11 -17.15625 C 10.007812 -16.707031 9.066406 -16.164062 8.171875 -15.53125 C 7.273438 -14.90625 6.441406 -14.207031 5.671875 -13.4375 C 4.234375 -12.132812 2.914062 -10.726562 1.71875 -9.21875 C 0.53125 -7.707031 -0.445312 -6.050781 -1.21875 -4.25 C -1.394531 -3.894531 -1.550781 -3.523438 -1.6875 -3.140625 C -1.820312 -2.753906 -1.84375 -2.289062 -1.75 -1.75 C -1.164062 -2.113281 -0.671875 -2.472656 -0.265625 -2.828125 C 0.140625 -3.191406 0.546875 -3.554688 0.953125 -3.921875 C 3.015625 -5.898438 4.988281 -7.96875 6.875 -10.125 C 8.769531 -12.289062 10.800781 -14.316406 12.96875 -16.203125 Z M -21 58.34375 C -18.65625 55.007812 -16.515625 51.53125 -14.578125 47.90625 C -12.648438 44.289062 -10.851562 40.632812 -9.1875 36.9375 C -7.738281 33.695312 -6.304688 30.429688 -4.890625 27.140625 C -3.472656 23.859375 -2.066406 20.570312 -0.671875 17.28125 C -0.398438 16.65625 -0.128906 16.023438 0.140625 15.390625 C 0.410156 14.765625 0.679688 14.132812 0.953125 13.5 C 1.128906 13.101562 1.171875 12.835938 1.078125 12.703125 C 0.992188 12.566406 0.722656 12.472656 0.265625 12.421875 C -0.410156 12.335938 -1.082031 12.296875 -1.75 12.296875 C -2.425781 12.296875 -3.125 12.316406 -3.84375 12.359375 C -7.3125 12.398438 -10.6875 12.867188 -13.96875 13.765625 C -17.257812 14.671875 -20.484375 15.84375 -23.640625 17.28125 C -28.234375 19.3125 -32.53125 21.742188 -36.53125 24.578125 C -40.539062 27.410156 -44.164062 30.789062 -47.40625 34.71875 C -49.882812 37.726562 -51.84375 40.953125 -53.28125 44.390625 C -54.71875 47.835938 -55.460938 51.566406 -55.515625 55.578125 C -55.648438 58.773438 -54.992188 61.878906 -53.546875 64.890625 C -53.054688 66.015625 -52.472656 67.082031 -51.796875 68.09375 C -51.117188 69.113281 -50.21875 69.960938 -49.09375 70.640625 C -46.84375 71.984375 -44.34375 72.613281 -41.59375 72.53125 C -39.53125 72.4375 -37.582031 72.03125 -35.75 71.3125 C -33.925781 70.59375 -32.207031 69.625 -30.59375 68.40625 C -28.695312 67.007812 -26.960938 65.46875 -25.390625 63.78125 C -23.816406 62.09375 -22.351562 60.28125 -21 58.34375 Z M -21 58.34375 "/></g></g></g><g fill="#332111" fill-opacity="1"><g transform="translate(84.146109, 179.049957)"><g><path d="M 4.9375 10.765625 L 12.671875 1.4375 L 0.6875 3.328125 L 11.421875 -6.296875 L 12.109375 -5.078125 L 4.859375 1.34375 L 15.703125 -0.296875 L 8.75 8.15625 L 17.984375 5.234375 L 18.65625 6.421875 Z M 4.9375 10.765625 "/></g></g></g><g fill="#332111" fill-opacity="1"><g transform="translate(96.69662, 199.138655)"><g><path d="M 5.875 7.0625 L 0.921875 1.109375 L 10.9375 -7.21875 L 15.890625 -1.265625 L 14.953125 -0.484375 L 10.859375 -5.40625 L 7.28125 -2.4375 L 11.25 2.328125 L 10.28125 3.140625 L 6.3125 -1.625 L 2.75 1.34375 L 6.84375 6.265625 Z M 5.875 7.0625 "/></g></g></g><g fill="#332111" fill-opacity="1"><g transform="translate(109.484452, 213.525457)"><g><path d="M 13.015625 2.625 C 12.390625 3.34375 11.6875 3.890625 10.90625 4.265625 C 10.101562 4.628906 9.289062 4.835938 8.46875 4.890625 C 7.632812 4.921875 6.804688 4.796875 5.984375 4.515625 C 5.148438 4.234375 4.378906 3.785156 3.671875 3.171875 L 1.09375 0.9375 L 9.609375 -8.921875 L 12.1875 -6.6875 C 12.894531 -6.070312 13.457031 -5.378906 13.875 -4.609375 C 14.269531 -3.828125 14.507812 -3.023438 14.59375 -2.203125 C 14.65625 -1.367188 14.566406 -0.535156 14.328125 0.296875 C 14.066406 1.140625 13.628906 1.914062 13.015625 2.625 Z M 12.015625 1.765625 C 12.984375 0.640625 13.398438 -0.632812 13.265625 -2.0625 C 13.128906 -3.46875 12.488281 -4.660156 11.34375 -5.640625 L 9.75 -7.03125 L 2.984375 0.796875 L 4.578125 2.1875 C 5.722656 3.164062 7 3.628906 8.40625 3.578125 C 9.84375 3.492188 11.046875 2.890625 12.015625 1.765625 Z M 12.015625 1.765625 "/></g></g></g><g fill="#332111" fill-opacity="1"><g transform="translate(125.922665, 226.741234)"><g><path d="M 13.265625 0.359375 C 12.785156 1.171875 12.191406 1.832031 11.484375 2.34375 C 10.753906 2.84375 9.988281 3.179688 9.1875 3.359375 C 8.375 3.546875 7.535156 3.566406 6.671875 3.421875 C 5.796875 3.285156 4.957031 2.972656 4.15625 2.484375 L 1.234375 0.734375 L 7.9375 -10.4375 L 10.859375 -8.6875 C 11.660156 -8.195312 12.335938 -7.609375 12.890625 -6.921875 C 13.410156 -6.210938 13.78125 -5.460938 14 -4.671875 C 14.207031 -3.859375 14.265625 -3.019531 14.171875 -2.15625 C 14.054688 -1.289062 13.753906 -0.453125 13.265625 0.359375 Z M 12.140625 -0.328125 C 12.910156 -1.597656 13.101562 -2.925781 12.71875 -4.3125 C 12.34375 -5.65625 11.503906 -6.71875 10.203125 -7.5 L 8.40625 -8.578125 L 3.078125 0.28125 L 4.875 1.359375 C 6.175781 2.140625 7.515625 2.375 8.890625 2.0625 C 10.296875 1.738281 11.378906 0.941406 12.140625 -0.328125 Z M 12.140625 -0.328125 "/></g></g></g><g fill="#332111" fill-opacity="1"><g transform="translate(144.24837, 236.73175)"><g><path d="M 2.5625 1.09375 L 1.328125 0.5625 L 6.4375 -11.421875 L 7.671875 -10.890625 Z M 2.5625 1.09375 "/></g></g></g><g fill="#332111" fill-opacity="1"><g transform="translate(156.023168, 241.405223)"><g><path d="M 5.25 -8.53125 L 2.6875 0.734375 L 1.390625 0.390625 L 5.078125 -12.96875 L 9.375 -0.984375 L 11.921875 -10.21875 L 13.21875 -9.875 L 9.53125 3.46875 Z M 5.25 -8.53125 "/></g></g></g><g fill="#332111" fill-opacity="1"><g transform="translate(175.715587, 246.204949)"><g><path d="M 14.78125 -4.78125 L 14.578125 -4.015625 C 14.160156 -2.453125 13.273438 -1.21875 11.921875 -0.3125 C 10.566406 0.59375 9.101562 0.972656 7.53125 0.828125 C 6.601562 0.742188 5.753906 0.484375 4.984375 0.046875 C 4.191406 -0.367188 3.523438 -0.910156 2.984375 -1.578125 C 2.441406 -2.210938 2.035156 -2.957031 1.765625 -3.8125 C 1.472656 -4.65625 1.367188 -5.539062 1.453125 -6.46875 C 1.535156 -7.382812 1.796875 -8.238281 2.234375 -9.03125 C 2.648438 -9.800781 3.1875 -10.46875 3.84375 -11.03125 C 4.488281 -11.582031 5.238281 -12 6.09375 -12.28125 C 6.925781 -12.550781 7.757812 -12.644531 8.59375 -12.5625 C 10.144531 -12.425781 11.472656 -11.867188 12.578125 -10.890625 C 13.703125 -9.898438 14.410156 -8.664062 14.703125 -7.1875 L 13.296875 -7.3125 C 12.992188 -8.394531 12.414062 -9.289062 11.5625 -10 C 10.695312 -10.707031 9.710938 -11.113281 8.609375 -11.21875 C 7.128906 -11.34375 5.820312 -10.929688 4.6875 -9.984375 C 3.539062 -9.035156 2.90625 -7.820312 2.78125 -6.34375 C 2.644531 -4.882812 3.054688 -3.578125 4.015625 -2.421875 C 4.953125 -1.285156 6.164062 -0.648438 7.65625 -0.515625 C 8.832031 -0.410156 9.929688 -0.644531 10.953125 -1.21875 C 11.972656 -1.820312 12.722656 -2.671875 13.203125 -3.765625 L 7.921875 -4.234375 L 8.03125 -5.390625 Z M 14.78125 -4.78125 "/></g></g></g><g fill="#332111" fill-opacity="1"><g transform="translate(199.389996, 247.291113)"><g/></g></g><g fill="#332111" fill-opacity="1"><g transform="translate(212.927981, 246.029459)"><g><path d="M 6.765625 -13.328125 L 0.484375 -12.109375 L 1.359375 -7.5625 L 7.4375 -8.75 L 7.6875 -7.5 L 1.609375 -6.3125 L 2.734375 -0.53125 L 1.40625 -0.28125 L -1.078125 -13.078125 L 6.53125 -14.546875 Z M 6.765625 -13.328125 "/></g></g></g><g fill="#332111" fill-opacity="1"><g transform="translate(230.501465, 241.937256)"><g><path d="M 2.1875 -2.171875 L 6.59375 -3.6875 L 7.03125 -2.421875 L 2.625 -0.90625 L 2 -0.6875 L 1.359375 -0.46875 L -2.890625 -12.78125 L -1.625 -13.21875 Z M 2.1875 -2.171875 "/></g></g></g><g fill="#332111" fill-opacity="1"><g transform="translate(245.920719, 236.175649)"><g><path d="M 8.234375 -11.921875 C 7.535156 -13.210938 6.472656 -14.066406 5.046875 -14.484375 C 3.628906 -14.910156 2.269531 -14.769531 0.96875 -14.0625 C -0.320312 -13.363281 -1.175781 -12.300781 -1.59375 -10.875 C -2.019531 -9.457031 -1.882812 -8.101562 -1.1875 -6.8125 C -0.476562 -5.5 0.585938 -4.640625 2.015625 -4.234375 C 3.429688 -3.804688 4.785156 -3.941406 6.078125 -4.640625 C 7.378906 -5.347656 8.238281 -6.414062 8.65625 -7.84375 C 9.082031 -9.25 8.941406 -10.609375 8.234375 -11.921875 Z M 9.421875 -12.5625 C 9.859375 -11.75 10.117188 -10.90625 10.203125 -10.03125 C 10.273438 -9.132812 10.191406 -8.285156 9.953125 -7.484375 C 9.703125 -6.648438 9.296875 -5.882812 8.734375 -5.1875 C 8.203125 -4.476562 7.53125 -3.898438 6.71875 -3.453125 C 5.90625 -3.015625 5.0625 -2.769531 4.1875 -2.71875 C 3.289062 -2.625 2.4375 -2.707031 1.625 -2.96875 C 0.800781 -3.195312 0.0390625 -3.585938 -0.65625 -4.140625 C -1.363281 -4.679688 -1.9375 -5.359375 -2.375 -6.171875 C -2.8125 -6.984375 -3.066406 -7.835938 -3.140625 -8.734375 C -3.222656 -9.617188 -3.140625 -10.472656 -2.890625 -11.296875 C -2.648438 -12.097656 -2.253906 -12.851562 -1.703125 -13.5625 C -1.160156 -14.238281 -0.484375 -14.796875 0.328125 -15.234375 C 1.140625 -15.679688 1.976562 -15.945312 2.84375 -16.03125 C 3.75 -16.113281 4.613281 -16.039062 5.4375 -15.8125 C 6.25 -15.5625 7.007812 -15.164062 7.71875 -14.625 C 8.414062 -14.0625 8.984375 -13.375 9.421875 -12.5625 Z M 9.421875 -12.5625 "/></g></g></g><g fill="#332111" fill-opacity="1"><g transform="translate(266.36368, 223.985598)"><g><path d="M -1.84375 -6.765625 L 0.53125 -8.65625 C 1.113281 -9.125 1.441406 -9.710938 1.515625 -10.421875 C 1.578125 -11.148438 1.375 -11.8125 0.90625 -12.40625 C 0.425781 -13 -0.15625 -13.335938 -0.84375 -13.421875 C -1.5 -13.503906 -2.140625 -13.300781 -2.765625 -12.8125 L -5.140625 -10.921875 Z M 1.96875 -13.203125 C 2.675781 -12.316406 2.945312 -11.328125 2.78125 -10.234375 C 2.644531 -9.265625 2.203125 -8.441406 1.453125 -7.765625 L 7.796875 -6.203125 L 6.390625 -5.09375 L 0.1875 -6.75 L -1.046875 -5.765625 L 2.171875 -1.734375 L 1.125 -0.890625 L -6.984375 -11.09375 L -3.703125 -13.703125 C -2.796875 -14.421875 -1.8125 -14.742188 -0.75 -14.671875 C 0.363281 -14.578125 1.269531 -14.085938 1.96875 -13.203125 Z M 1.96875 -13.203125 "/></g></g></g><g fill="#332111" fill-opacity="1"><g transform="translate(280.626345, 211.688167)"><g><path d="M 1.9375 -2 L 1 -1.03125 L -8.359375 -10.109375 L -7.421875 -11.078125 Z M 1.9375 -2 "/></g></g></g><g fill="#332111" fill-opacity="1"><g transform="translate(289.195523, 202.378319)"><g><path d="M -1.921875 -7.734375 C -4.003906 -5.960938 -5.707031 -5.570312 -7.03125 -6.5625 C -8.019531 -7.289062 -8.503906 -8.179688 -8.484375 -9.234375 C -8.460938 -10.285156 -8.109375 -11.273438 -7.421875 -12.203125 C -5.898438 -14.242188 -4.242188 -14.890625 -2.453125 -14.140625 L -3.3125 -12.96875 C -4.375 -13.425781 -5.4375 -12.941406 -6.5 -11.515625 C -7.25 -10.503906 -7.476562 -9.578125 -7.1875 -8.734375 C -7.0625 -8.421875 -6.828125 -8.132812 -6.484375 -7.875 C -5.835938 -7.394531 -5.082031 -7.375 -4.21875 -7.8125 C -3.800781 -8.019531 -3.054688 -8.550781 -1.984375 -9.40625 C -0.921875 -10.257812 -0.0351562 -10.804688 0.671875 -11.046875 C 1.628906 -11.347656 2.535156 -11.1875 3.390625 -10.5625 C 4.441406 -9.769531 4.929688 -8.765625 4.859375 -7.546875 C 4.796875 -6.503906 4.382812 -5.472656 3.625 -4.453125 C 1.90625 -2.128906 0.0195312 -1.4375 -2.03125 -2.375 L -1.078125 -3.65625 C 0.171875 -3.039062 1.40625 -3.554688 2.625 -5.203125 C 3.488281 -6.367188 3.773438 -7.414062 3.484375 -8.34375 C 3.359375 -8.726562 3.078125 -9.082031 2.640625 -9.40625 C 2.203125 -9.726562 1.722656 -9.828125 1.203125 -9.703125 C 0.453125 -9.503906 -0.585938 -8.847656 -1.921875 -7.734375 Z M -1.921875 -7.734375 "/></g></g></g><g fill="#332111" fill-opacity="1"><g transform="translate(300.246477, 186.273984)"><g><path d="M -10.25 -5.90625 L -11.359375 -6.5 L -9.875 -9.28125 L -9.25 -10.46875 L -7.765625 -13.25 L -6.65625 -12.65625 L -8.140625 -9.875 L 2.265625 -4.328125 L 1.640625 -3.140625 L -8.765625 -8.6875 Z M -10.25 -5.90625 "/></g></g></g><g fill="#332111" fill-opacity="1"><g transform="translate(89.495468, 98.495143)"><g><path d="M -8.390625 -12.375 L -10.359375 -6.28125 L -5.953125 -4.84375 L -4.046875 -10.75 L -2.84375 -10.359375 L -4.75 -4.453125 L 0.859375 -2.640625 L 0.4375 -1.375 L -11.953125 -5.390625 L -9.5625 -12.75 Z M -8.390625 -12.375 "/></g></g></g><g fill="#332111" fill-opacity="1"><g transform="translate(95.069315, 83.054516)"><g><path d="M 0.015625 -3.09375 L 2.0625 -7.28125 L 3.265625 -6.6875 L 1.21875 -2.5 L 0.921875 -1.890625 L 0.625 -1.296875 L -11.09375 -7.015625 L -10.5 -8.21875 Z M 0.015625 -3.09375 "/></g></g></g><g fill="#332111" fill-opacity="1"><g transform="translate(101.678338, 70.082541)"><g><path d="M 2.140625 -14.328125 C 0.941406 -15.179688 -0.382812 -15.484375 -1.84375 -15.234375 C -3.300781 -14.984375 -4.460938 -14.253906 -5.328125 -13.046875 C -6.179688 -11.847656 -6.484375 -10.519531 -6.234375 -9.0625 C -5.984375 -7.601562 -5.257812 -6.445312 -4.0625 -5.59375 C -2.851562 -4.726562 -1.519531 -4.425781 -0.0625 -4.6875 C 1.394531 -4.925781 2.550781 -5.644531 3.40625 -6.84375 C 4.269531 -8.050781 4.578125 -9.390625 4.328125 -10.859375 C 4.078125 -12.304688 3.347656 -13.460938 2.140625 -14.328125 Z M 2.921875 -15.421875 C 3.671875 -14.890625 4.28125 -14.25 4.75 -13.5 C 5.207031 -12.726562 5.507812 -11.925781 5.65625 -11.09375 C 5.789062 -10.238281 5.765625 -9.375 5.578125 -8.5 C 5.390625 -7.625 5.03125 -6.8125 4.5 -6.0625 C 3.96875 -5.3125 3.320312 -4.710938 2.5625 -4.265625 C 1.800781 -3.804688 1 -3.507812 0.15625 -3.375 C -0.6875 -3.21875 -1.539062 -3.238281 -2.40625 -3.4375 C -3.28125 -3.613281 -4.09375 -3.96875 -4.84375 -4.5 C -5.59375 -5.03125 -6.195312 -5.679688 -6.65625 -6.453125 C -7.125 -7.203125 -7.425781 -8.003906 -7.5625 -8.859375 C -7.707031 -9.691406 -7.6875 -10.546875 -7.5 -11.421875 C -7.3125 -12.273438 -6.953125 -13.078125 -6.421875 -13.828125 C -5.890625 -14.578125 -5.242188 -15.1875 -4.484375 -15.65625 C -3.722656 -16.113281 -2.914062 -16.421875 -2.0625 -16.578125 C -1.226562 -16.710938 -0.375 -16.691406 0.5 -16.515625 C 1.363281 -16.316406 2.171875 -15.953125 2.921875 -15.421875 Z M 2.921875 -15.421875 "/></g></g></g><g fill="#332111" fill-opacity="1"><g transform="translate(114.754825, 52.794766)"><g><path d="M 9.28125 -7.34375 L -1.625 -12.65625 L 3.0625 -1.453125 L -8.8125 -9.59375 L -7.8125 -10.546875 L 0.140625 -5.046875 L -4.03125 -15.1875 L 5.84375 -10.4375 L 0.8125 -18.71875 L 1.8125 -19.65625 Z M 9.28125 -7.34375 "/></g></g></g><g fill="#332111" fill-opacity="1"><g transform="translate(131.005653, 38.486981)"><g><path d="M 7.671875 -5.046875 L 1.203125 -0.796875 L -5.96875 -11.6875 L 0.5 -15.9375 L 1.1875 -14.90625 L -4.15625 -11.390625 L -1.609375 -7.515625 L 3.5625 -10.921875 L 4.265625 -9.859375 L -0.90625 -6.453125 L 1.640625 -2.578125 L 6.984375 -6.09375 Z M 7.671875 -5.046875 "/></g></g></g><g fill="#332111" fill-opacity="1"><g transform="translate(145.812181, 29.377254)"><g><path d="M -0.125 -7.015625 L 2.640625 -8.265625 C 3.316406 -8.578125 3.769531 -9.066406 4 -9.734375 C 4.238281 -10.421875 4.203125 -11.113281 3.890625 -11.8125 C 3.578125 -12.5 3.097656 -12.972656 2.453125 -13.234375 C 1.828125 -13.472656 1.15625 -13.429688 0.4375 -13.109375 L -2.328125 -11.859375 Z M 5.125 -12.328125 C 5.59375 -11.296875 5.613281 -10.265625 5.1875 -9.234375 C 4.820312 -8.335938 4.191406 -7.648438 3.296875 -7.171875 L 9.078125 -4.125 L 7.4375 -3.375 L 1.84375 -6.484375 L 0.40625 -5.84375 L 2.53125 -1.15625 L 1.3125 -0.59375 L -4.078125 -12.453125 L -0.265625 -14.1875 C 0.785156 -14.664062 1.820312 -14.738281 2.84375 -14.40625 C 3.894531 -14.039062 4.65625 -13.347656 5.125 -12.328125 Z M 5.125 -12.328125 "/></g></g></g><g fill="#332111" fill-opacity="1"><g transform="translate(161.831121, 22.79887)"><g/></g></g><g fill="#332111" fill-opacity="1"><g transform="translate(173.342715, 19.470444)"><g><path d="M 11.8125 -0.625 L 5.984375 -11.25 L 3.34375 0.578125 L -1.640625 -12.9375 L -0.265625 -13.125 L 3.046875 -4.03125 L 5.5 -14.71875 L 10.8125 -5.140625 L 11.484375 -14.796875 L 12.84375 -14.984375 Z M 11.8125 -0.625 "/></g></g></g><g fill="#332111" fill-opacity="1"><g transform="translate(195.032588, 17.300366)"><g><path d="M 2.78125 0.015625 L 1.4375 0.015625 L 1.53125 -13.015625 L 2.875 -13.015625 Z M 2.78125 0.015625 "/></g></g></g><g fill="#332111" fill-opacity="1"><g transform="translate(206.218609, 17.671235)"><g><path d="M 1.890625 -11.6875 L 2.046875 -12.921875 L 5.171875 -12.515625 L 6.5 -12.34375 L 9.640625 -11.953125 L 9.484375 -10.71875 L 6.34375 -11.109375 L 4.84375 0.59375 L 3.515625 0.421875 L 5.015625 -11.28125 Z M 1.890625 -11.6875 "/></g></g></g><g fill="#332111" fill-opacity="1"><g transform="translate(221.272351, 19.997362)"><g><path d="M 2.671875 0.765625 L 1.375 0.390625 L 4.953125 -12.140625 L 6.25 -11.765625 L 4.640625 -6.125 L 10.34375 -4.5 L 11.953125 -10.140625 L 13.234375 -9.765625 L 9.65625 2.765625 L 8.375 2.390625 L 9.96875 -3.21875 L 4.265625 -4.84375 Z M 2.671875 0.765625 "/></g></g></g><g fill="#332111" fill-opacity="1"><g transform="translate(238.709101, 25.692931)"><g/></g></g><g fill="#332111" fill-opacity="1"><g transform="translate(249.613025, 30.655708)"><g><path d="M 15.328125 2.5625 L 14.78125 3.15625 C 13.707031 4.34375 12.351562 5.03125 10.71875 5.21875 C 9.113281 5.394531 7.644531 5.054688 6.3125 4.203125 C 5.53125 3.703125 4.890625 3.082031 4.390625 2.34375 C 3.878906 1.613281 3.539062 0.828125 3.375 -0.015625 C 3.1875 -0.847656 3.164062 -1.703125 3.3125 -2.578125 C 3.4375 -3.453125 3.753906 -4.285156 4.265625 -5.078125 C 4.753906 -5.847656 5.378906 -6.488281 6.140625 -7 C 6.867188 -7.488281 7.648438 -7.828125 8.484375 -8.015625 C 9.316406 -8.203125 10.175781 -8.226562 11.0625 -8.09375 C 11.9375 -7.9375 12.722656 -7.632812 13.421875 -7.1875 C 14.742188 -6.34375 15.664062 -5.238281 16.1875 -3.875 C 16.726562 -2.476562 16.789062 -1.050781 16.375 0.40625 L 15.171875 -0.359375 C 15.398438 -1.472656 15.300781 -2.535156 14.875 -3.546875 C 14.425781 -4.578125 13.738281 -5.390625 12.8125 -5.984375 C 11.550781 -6.785156 10.203125 -7.03125 8.765625 -6.71875 C 7.316406 -6.382812 6.195312 -5.597656 5.40625 -4.359375 C 4.613281 -3.117188 4.375 -1.769531 4.6875 -0.3125 C 4.976562 1.144531 5.757812 2.273438 7.03125 3.078125 C 8.019531 3.710938 9.101562 4.003906 10.28125 3.953125 C 11.457031 3.898438 12.515625 3.5 13.453125 2.75 L 8.984375 -0.09375 L 9.609375 -1.09375 Z M 15.328125 2.5625 "/></g></g></g><g fill="#332111" fill-opacity="1"><g transform="translate(267.551351, 43.05401)"><g><path d="M 6.40625 -2.84375 L 8.640625 -0.796875 C 9.191406 -0.285156 9.816406 -0.0507812 10.515625 -0.09375 C 11.253906 -0.15625 11.878906 -0.460938 12.390625 -1.015625 C 12.910156 -1.578125 13.160156 -2.203125 13.140625 -2.890625 C 13.117188 -3.566406 12.816406 -4.171875 12.234375 -4.703125 L 10 -6.75 Z M 13.359375 -0.09375 C 12.585938 0.738281 11.644531 1.160156 10.53125 1.171875 C 9.550781 1.179688 8.671875 0.867188 7.890625 0.234375 L 7.328125 6.75 L 6.015625 5.53125 L 6.6875 -0.84375 L 5.53125 -1.90625 L 2.046875 1.890625 L 1.0625 0.96875 L 9.890625 -8.625 L 12.96875 -5.78125 C 13.820312 -5 14.285156 -4.070312 14.359375 -3 C 14.453125 -1.882812 14.117188 -0.914062 13.359375 -0.09375 Z M 13.359375 -0.09375 "/></g></g></g><g fill="#332111" fill-opacity="1"><g transform="translate(279.848724, 55.030383)"><g><path d="M 5.953125 -0.171875 L 8.875 3.546875 L 12.140625 -2.015625 Z M 7.1875 9.15625 L 6.296875 8.015625 L 8.21875 4.71875 L 4.671875 0.203125 L 1.015625 1.296875 L 0.109375 0.140625 L 14.625 -3.953125 Z M 7.1875 9.15625 "/></g></g></g><g fill="#332111" fill-opacity="1"><g transform="translate(290.870049, 69.87272)"><g><path d="M 9.8125 9.953125 C 8.476562 10.117188 7.226562 9.890625 6.0625 9.265625 C 4.832031 8.660156 3.90625 7.769531 3.28125 6.59375 C 2.4375 5 2.300781 3.320312 2.875 1.5625 C 3.4375 -0.144531 4.523438 -1.425781 6.140625 -2.28125 C 6.941406 -2.707031 7.785156 -2.96875 8.671875 -3.0625 C 9.535156 -3.15625 10.375 -3.085938 11.1875 -2.859375 C 12.957031 -2.347656 14.265625 -1.296875 15.109375 0.296875 C 15.734375 1.472656 15.972656 2.71875 15.828125 4.03125 C 15.671875 5.375 15.15625 6.546875 14.28125 7.546875 L 13.59375 6.25 C 14.394531 5.019531 14.664062 3.691406 14.40625 2.265625 C 14.289062 1.796875 14.09375 1.296875 13.8125 0.765625 C 13.519531 0.234375 13.101562 -0.238281 12.5625 -0.65625 C 12.019531 -1.070312 11.421875 -1.367188 10.765625 -1.546875 C 9.390625 -1.941406 8.054688 -1.796875 6.765625 -1.109375 C 5.492188 -0.429688 4.632812 0.585938 4.1875 1.953125 C 3.726562 3.347656 3.832031 4.675781 4.5 5.9375 C 4.957031 6.789062 5.601562 7.460938 6.4375 7.953125 C 7.269531 8.421875 8.164062 8.648438 9.125 8.640625 Z M 9.8125 9.953125 "/></g></g></g><g fill="#332111" fill-opacity="1"><g transform="translate(299.938939, 88.415363)"><g><path d="M 2.875 8.734375 L 0.453125 1.359375 L 12.828125 -2.71875 L 15.25 4.65625 L 14.078125 5.046875 L 12.078125 -1.046875 L 7.671875 0.40625 L 9.609375 6.296875 L 8.40625 6.6875 L 6.46875 0.796875 L 2.0625 2.25 L 4.0625 8.34375 Z M 2.875 8.734375 "/></g></g></g><g clip-path="url(#6c660d78fc)"><g clip-path="url(#64505cd388)"><g clip-path="url(#f7032256b3)"><path fill="#332111" d="M 14.65625 113.316406 C 14.613281 113.171875 14.601562 113.03125 14.617188 112.921875 C 14.675781 112.394531 15.167969 112.003906 15.695312 112.0625 C 16.21875 112.121094 16.609375 112.617188 16.550781 113.140625 C 16.515625 113.445312 16.347656 113.707031 16.101562 113.875 C 21.136719 122.515625 34.640625 125.679688 50.679688 125.96875 C 77.484375 126.425781 111.355469 118.722656 125.566406 114.6875 C 126.089844 114.523438 126.546875 114.4375 127 114.375 C 128.167969 114.203125 129.105469 114.335938 129.769531 114.664062 C 130.511719 115.027344 130.957031 115.554688 131.136719 116.164062 C 131.179688 116.28125 131.195312 116.394531 131.214844 116.480469 C 131.261719 116.796875 131.035156 117.050781 130.75 117.101562 C 130.4375 117.148438 130.183594 116.925781 130.132812 116.636719 C 130.109375 116.578125 130.117188 116.523438 130.09375 116.464844 C 129.992188 116.144531 129.773438 115.867188 129.320312 115.648438 C 128.84375 115.425781 128.125 115.316406 127.15625 115.457031 C 126.785156 115.527344 126.328125 115.617188 125.867188 115.730469 C 111.597656 119.789062 77.585938 127.5 50.640625 127.058594 C 33.734375 126.75 19.597656 123.261719 14.679688 113.597656 C 14.632812 113.511719 14.613281 113.425781 14.625 113.339844 Z M 14.65625 113.316406 " fill-opacity="1" fill-rule="evenodd"/></g></g></g></svg>