<svg xmlns="http://www.w3.org/2000/svg" xmlns:xlink="http://www.w3.org/1999/xlink" width="500" zoomAndPan="magnify" viewBox="0 0 375 374.999991" height="500" preserveAspectRatio="xMidYMid meet" version="1.0"><defs><g/><clipPath id="a04b286be1"><path d="M 233 188 L 335 188 L 335 203 L 233 203 Z M 233 188 " clip-rule="nonzero"/></clipPath><clipPath id="88283214bb"><path d="M 228.039062 156.324219 L 344.789062 163.953125 L 340.09375 235.800781 L 223.339844 228.171875 Z M 228.039062 156.324219 " clip-rule="nonzero"/></clipPath><clipPath id="a283cd3b71"><path d="M 228.039062 156.324219 L 344.789062 163.953125 L 340.09375 235.800781 L 223.339844 228.171875 Z M 228.039062 156.324219 " clip-rule="nonzero"/></clipPath><clipPath id="824f9f4c4f"><path d="M 33 167 L 135 167 L 135 181 L 33 181 Z M 33 167 " clip-rule="nonzero"/></clipPath><clipPath id="f440de0a81"><path d="M 137.457031 215.601562 L 21.210938 202.335938 L 29.375 130.800781 L 145.621094 144.066406 Z M 137.457031 215.601562 " clip-rule="nonzero"/></clipPath><clipPath id="cf08138081"><path d="M 137.457031 215.601562 L 21.210938 202.335938 L 29.375 130.800781 L 145.621094 144.066406 Z M 137.457031 215.601562 " clip-rule="nonzero"/></clipPath></defs><g clip-path="url(#a04b286be1)"><g clip-path="url(#88283214bb)"><g clip-path="url(#a283cd3b71)"><path fill="#bb5167" d="M 334.410156 198.445312 C 334.453125 198.566406 334.46875 198.691406 334.460938 198.785156 C 334.429688 199.242188 334.023438 199.601562 333.5625 199.574219 C 333.105469 199.542969 332.746094 199.132812 332.777344 198.675781 C 332.792969 198.410156 332.929688 198.179688 333.132812 198.023438 C 328.414062 190.757812 316.597656 188.582031 302.703125 189.003906 C 279.488281 189.734375 250.5 197.816406 238.371094 201.902344 C 237.925781 202.066406 237.53125 202.164062 237.140625 202.234375 C 236.136719 202.433594 235.320312 202.355469 234.734375 202.101562 C 234.074219 201.816406 233.667969 201.378906 233.484375 200.859375 C 233.445312 200.761719 233.425781 200.664062 233.40625 200.589844 C 233.351562 200.320312 233.535156 200.089844 233.78125 200.035156 C 234.050781 199.980469 234.28125 200.164062 234.335938 200.40625 C 234.359375 200.457031 234.355469 200.503906 234.375 200.554688 C 234.476562 200.828125 234.679688 201.058594 235.082031 201.230469 C 235.503906 201.402344 236.128906 201.46875 236.960938 201.304688 C 237.277344 201.226562 237.671875 201.132812 238.066406 201.015625 C 250.246094 196.90625 279.355469 188.804688 302.691406 188.0625 C 317.335938 187.617188 329.71875 190.042969 334.378906 198.199219 C 334.421875 198.277344 334.441406 198.347656 334.4375 198.421875 Z M 334.410156 198.445312 " fill-opacity="1" fill-rule="evenodd"/></g></g></g><g fill="#bb5167" fill-opacity="1"><g transform="translate(126.193355, 188.666164)"><g><path d="M 46.046875 -8.25 C 43.773438 -7.507812 41.457031 -6.828125 39.09375 -6.203125 C 36.738281 -5.578125 34.375 -4.992188 32 -4.453125 C 29.425781 -3.828125 26.832031 -3.238281 24.21875 -2.6875 C 21.601562 -2.144531 18.988281 -1.597656 16.375 -1.046875 C 15.875 -0.929688 15.347656 -0.820312 14.796875 -0.71875 C 14.253906 -0.625 13.707031 -0.539062 13.15625 -0.46875 C 12.53125 -0.351562 12.101562 -0.0195312 11.875 0.53125 C 10.3125 4.851562 8.671875 9.148438 6.953125 13.421875 C 5.242188 17.691406 3.628906 21.992188 2.109375 26.328125 C 1.210938 28.816406 0.285156 31.328125 -0.671875 33.859375 C -1.628906 36.398438 -2.710938 38.878906 -3.921875 41.296875 C -3.960938 41.335938 -3.988281 41.382812 -4 41.4375 C -4.019531 41.5 -4.050781 41.570312 -4.09375 41.65625 C -4.363281 42.15625 -4.566406 42.453125 -4.703125 42.546875 C -4.835938 42.648438 -5.082031 42.625 -5.4375 42.46875 C -5.945312 42.269531 -6.289062 42.046875 -6.46875 41.796875 C -6.644531 41.546875 -6.65625 41.164062 -6.5 40.65625 C -6.300781 39.988281 -6.09375 39.351562 -5.875 38.75 C -5.664062 38.144531 -5.441406 37.53125 -5.203125 36.90625 C -3.878906 33.476562 -2.5625 30.054688 -1.25 26.640625 C 0.0507812 23.234375 1.363281 19.832031 2.6875 16.4375 C 3.707031 13.863281 4.519531 11.238281 5.125 8.5625 C 5.726562 5.894531 6.28125 3.21875 6.78125 0.53125 C 6.863281 0.0195312 6.863281 -0.28125 6.78125 -0.375 C 6.707031 -0.476562 6.414062 -0.609375 5.90625 -0.765625 C 4.9375 -1.078125 4.03125 -1.484375 3.1875 -1.984375 C 2.351562 -2.492188 1.582031 -3.117188 0.875 -3.859375 C 0.25 -4.554688 -0.21875 -5.320312 -0.53125 -6.15625 C -0.84375 -7 -1.015625 -7.875 -1.046875 -8.78125 C -1.128906 -10.613281 -0.90625 -12.359375 -0.375 -14.015625 C 0.144531 -15.671875 1.070312 -17.160156 2.40625 -18.484375 C 3.332031 -19.421875 4.320312 -19.878906 5.375 -19.859375 C 6.4375 -19.835938 7.429688 -19.359375 8.359375 -18.421875 C 8.710938 -18.035156 8.945312 -17.84375 9.0625 -17.84375 C 9.1875 -17.84375 9.441406 -18 9.828125 -18.3125 C 11.734375 -20.0625 13.5625 -21.882812 15.3125 -23.78125 C 17.070312 -25.675781 18.753906 -27.632812 20.359375 -29.65625 C 20.585938 -29.925781 20.78125 -30.226562 20.9375 -30.5625 C 21.09375 -30.894531 21.25 -31.21875 21.40625 -31.53125 C 22.382812 -33.945312 23.347656 -36.363281 24.296875 -38.78125 C 25.253906 -41.195312 26.28125 -43.597656 27.375 -45.984375 C 27.644531 -46.609375 27.925781 -47.226562 28.21875 -47.84375 C 28.519531 -48.46875 28.863281 -49.054688 29.25 -49.609375 C 29.601562 -50.117188 29.882812 -50.429688 30.09375 -50.546875 C 30.3125 -50.660156 30.597656 -50.660156 30.953125 -50.546875 C 31.722656 -50.273438 32.109375 -49.535156 32.109375 -48.328125 C 31.953125 -47.347656 31.707031 -46.3125 31.375 -45.21875 C 31.050781 -44.125 30.675781 -43.050781 30.25 -42 C 29.425781 -39.976562 28.46875 -38.039062 27.375 -36.1875 C 26.28125 -34.332031 25.09375 -32.546875 23.8125 -30.828125 C 23.414062 -30.316406 23.109375 -29.78125 22.890625 -29.21875 C 22.679688 -28.65625 22.476562 -28.082031 22.28125 -27.5 C 21.070312 -24.257812 19.863281 -21 18.65625 -17.71875 C 17.445312 -14.445312 16.238281 -11.171875 15.03125 -7.890625 C 14.757812 -7.234375 14.492188 -6.5625 14.234375 -5.875 C 13.984375 -5.195312 13.742188 -4.523438 13.515625 -3.859375 C 13.273438 -3.191406 13.203125 -2.800781 13.296875 -2.6875 C 13.398438 -2.570312 13.804688 -2.570312 14.515625 -2.6875 C 15.097656 -2.769531 15.671875 -2.859375 16.234375 -2.953125 C 16.796875 -3.046875 17.351562 -3.15625 17.90625 -3.28125 C 21.445312 -4.019531 24.984375 -4.78125 28.515625 -5.5625 C 32.046875 -6.34375 35.566406 -7.160156 39.078125 -8.015625 C 40.171875 -8.285156 41.253906 -8.566406 42.328125 -8.859375 C 43.398438 -9.148438 44.460938 -9.4375 45.515625 -9.71875 C 46.054688 -9.832031 46.523438 -9.753906 46.921875 -9.484375 C 47.109375 -9.328125 47.191406 -9.160156 47.171875 -8.984375 C 47.160156 -8.804688 47.035156 -8.660156 46.796875 -8.546875 C 46.679688 -8.503906 46.566406 -8.453125 46.453125 -8.390625 C 46.335938 -8.335938 46.203125 -8.289062 46.046875 -8.25 Z M 5.03125 -17.953125 C 4.09375 -17.210938 3.390625 -16.351562 2.921875 -15.375 C 2.453125 -14.40625 2.125 -13.335938 1.9375 -12.171875 C 2.945312 -12.710938 3.878906 -13.304688 4.734375 -13.953125 C 5.597656 -14.597656 6.4375 -15.289062 7.25 -16.03125 C 7.644531 -16.382812 7.628906 -17.007812 7.203125 -17.90625 C 7.046875 -18.21875 6.859375 -18.378906 6.640625 -18.390625 C 6.421875 -18.410156 6.175781 -18.382812 5.90625 -18.3125 C 5.75 -18.269531 5.601562 -18.21875 5.46875 -18.15625 C 5.332031 -18.101562 5.1875 -18.035156 5.03125 -17.953125 Z M 8.125 -10.703125 C 8.125 -11.054688 8.125 -11.390625 8.125 -11.703125 C 8.125 -12.015625 8.125 -12.304688 8.125 -12.578125 C 8.09375 -13.003906 8.015625 -13.253906 7.890625 -13.328125 C 7.773438 -13.410156 7.523438 -13.316406 7.140625 -13.046875 C 6.316406 -12.421875 5.46875 -11.820312 4.59375 -11.25 C 3.71875 -10.6875 2.8125 -10.191406 1.875 -9.765625 C 1.601562 -9.691406 1.425781 -9.457031 1.34375 -9.0625 C 1.070312 -7.382812 1.429688 -5.882812 2.421875 -4.5625 C 3.421875 -3.238281 4.757812 -2.476562 6.4375 -2.28125 C 6.90625 -2.238281 7.195312 -2.472656 7.3125 -2.984375 C 7.507812 -4.265625 7.6875 -5.554688 7.84375 -6.859375 C 8 -8.171875 8.09375 -9.453125 8.125 -10.703125 Z M 10.703125 -3.625 C 11.753906 -6.394531 12.804688 -9.144531 13.859375 -11.875 C 14.910156 -14.601562 15.96875 -17.332031 17.03125 -20.0625 C 17.257812 -20.644531 17.476562 -21.238281 17.6875 -21.84375 C 17.90625 -22.445312 18.148438 -23.125 18.421875 -23.875 C 18.078125 -23.632812 17.804688 -23.40625 17.609375 -23.1875 C 17.410156 -22.976562 17.21875 -22.773438 17.03125 -22.578125 C 16.164062 -21.609375 15.285156 -20.644531 14.390625 -19.6875 C 13.492188 -18.726562 12.539062 -17.820312 11.53125 -16.96875 C 10.9375 -16.414062 10.503906 -15.859375 10.234375 -15.296875 C 9.960938 -14.734375 9.882812 -14.003906 10 -13.109375 C 10.195312 -11.585938 10.21875 -10.066406 10.0625 -8.546875 C 9.90625 -7.023438 9.75 -5.484375 9.59375 -3.921875 C 9.550781 -3.648438 9.484375 -3.335938 9.390625 -2.984375 C 9.296875 -2.628906 9.382812 -2.414062 9.65625 -2.34375 C 10.082031 -2.226562 10.332031 -2.34375 10.40625 -2.6875 C 10.488281 -3.039062 10.585938 -3.351562 10.703125 -3.625 Z M 10.703125 -3.625 "/></g></g></g><g fill="#bb5167" fill-opacity="1"><g transform="translate(171.706391, 188.666164)"><g><path d="M 18.609375 22.46875 C 17.628906 23.4375 16.445312 23.863281 15.0625 23.75 C 13.675781 23.632812 12.578125 23.007812 11.765625 21.875 C 11.367188 21.289062 11.050781 20.675781 10.8125 20.03125 C 10.582031 19.394531 10.367188 18.765625 10.171875 18.140625 C 9.828125 16.773438 9.625 15.390625 9.5625 13.984375 C 9.507812 12.578125 9.5625 11.171875 9.71875 9.765625 C 9.90625 7.703125 10.175781 5.65625 10.53125 3.625 C 10.882812 1.59375 11.3125 -0.414062 11.8125 -2.40625 C 11.894531 -2.707031 11.972656 -3.023438 12.046875 -3.359375 C 12.128906 -3.691406 12.128906 -4.054688 12.046875 -4.453125 C 11.773438 -4.140625 11.550781 -3.816406 11.375 -3.484375 C 11.195312 -3.148438 11.015625 -2.828125 10.828125 -2.515625 C 9.929688 -0.953125 8.972656 0.585938 7.953125 2.109375 C 6.941406 3.628906 5.789062 5.070312 4.5 6.4375 C 3.800781 7.132812 3.039062 7.773438 2.21875 8.359375 C 1.519531 8.867188 0.789062 9.171875 0.03125 9.265625 C -0.726562 9.367188 -1.5 9.34375 -2.28125 9.1875 C -3.289062 8.945312 -4.019531 8.46875 -4.46875 7.75 C -4.914062 7.03125 -5.238281 6.222656 -5.4375 5.328125 C -5.59375 4.617188 -5.660156 3.914062 -5.640625 3.21875 C -5.617188 2.519531 -5.570312 1.816406 -5.5 1.109375 C -5.101562 -1.148438 -4.515625 -3.332031 -3.734375 -5.4375 C -2.960938 -7.539062 -1.875 -9.507812 -0.46875 -11.34375 C -0.15625 -11.78125 0.179688 -12.113281 0.546875 -12.34375 C 0.921875 -12.570312 1.382812 -12.59375 1.9375 -12.40625 C 2.4375 -12.25 2.722656 -12.082031 2.796875 -11.90625 C 2.878906 -11.726562 2.785156 -11.425781 2.515625 -11 C 2.160156 -10.375 1.816406 -9.757812 1.484375 -9.15625 C 1.160156 -8.550781 0.84375 -7.9375 0.53125 -7.3125 C -0.988281 -4.113281 -1.984375 -0.78125 -2.453125 2.6875 C -2.535156 3.425781 -2.554688 4.164062 -2.515625 4.90625 C -2.472656 5.65625 -2.316406 6.398438 -2.046875 7.140625 C -1.816406 7.640625 -1.59375 7.9375 -1.375 8.03125 C -1.15625 8.132812 -0.796875 8.085938 -0.296875 7.890625 C 0.484375 7.578125 1.175781 7.175781 1.78125 6.6875 C 2.382812 6.207031 2.960938 5.675781 3.515625 5.09375 C 4.953125 3.570312 6.265625 1.960938 7.453125 0.265625 C 8.648438 -1.429688 9.753906 -3.195312 10.765625 -5.03125 C 11.503906 -6.28125 12.222656 -7.554688 12.921875 -8.859375 C 13.628906 -10.171875 14.234375 -11.507812 14.734375 -12.875 C 14.890625 -13.300781 15.078125 -13.550781 15.296875 -13.625 C 15.515625 -13.707031 15.816406 -13.707031 16.203125 -13.625 C 16.554688 -13.550781 16.78125 -13.414062 16.875 -13.21875 C 16.976562 -13.019531 16.988281 -12.6875 16.90625 -12.21875 C 16.675781 -11.007812 16.429688 -9.78125 16.171875 -8.53125 C 15.921875 -7.289062 15.640625 -6.046875 15.328125 -4.796875 C 14.816406 -2.453125 14.359375 -0.113281 13.953125 2.21875 C 13.546875 4.5625 13.242188 6.941406 13.046875 9.359375 C 12.890625 11.304688 12.890625 13.253906 13.046875 15.203125 C 13.203125 17.160156 13.59375 19.070312 14.21875 20.9375 C 14.53125 21.875 14.859375 22.390625 15.203125 22.484375 C 15.554688 22.585938 16.085938 22.289062 16.796875 21.59375 C 17.335938 21.039062 17.820312 20.441406 18.25 19.796875 C 18.675781 19.160156 19.066406 18.507812 19.421875 17.84375 C 20.785156 15.1875 21.960938 12.460938 22.953125 9.671875 C 23.953125 6.890625 24.863281 4.078125 25.6875 1.234375 C 26.226562 -0.640625 26.75 -2.519531 27.25 -4.40625 C 27.757812 -6.300781 28.210938 -8.207031 28.609375 -10.125 C 28.765625 -10.863281 28.820312 -11.625 28.78125 -12.40625 C 28.738281 -13.101562 28.75 -13.800781 28.8125 -14.5 C 28.875 -15.207031 29.019531 -15.894531 29.25 -16.5625 C 29.445312 -17.101562 29.660156 -17.429688 29.890625 -17.546875 C 30.128906 -17.660156 30.484375 -17.660156 30.953125 -17.546875 C 31.378906 -17.472656 31.640625 -17.347656 31.734375 -17.171875 C 31.828125 -16.992188 31.835938 -16.613281 31.765625 -16.03125 C 31.691406 -15.320312 31.660156 -14.625 31.671875 -13.9375 C 31.691406 -13.257812 31.722656 -12.570312 31.765625 -11.875 C 31.835938 -11.175781 31.953125 -10.503906 32.109375 -9.859375 C 32.265625 -9.210938 32.5 -8.578125 32.8125 -7.953125 C 33.90625 -5.847656 35.644531 -4.832031 38.03125 -4.90625 C 39.113281 -4.945312 40.179688 -5.113281 41.234375 -5.40625 C 42.296875 -5.695312 43.3125 -6.097656 44.28125 -6.609375 C 45.175781 -7.035156 46.050781 -7.492188 46.90625 -7.984375 C 47.769531 -8.472656 48.628906 -8.988281 49.484375 -9.53125 C 49.609375 -9.613281 49.726562 -9.671875 49.84375 -9.703125 C 49.957031 -9.742188 50.070312 -9.785156 50.1875 -9.828125 C 50.695312 -9.984375 51.03125 -9.90625 51.1875 -9.59375 C 51.257812 -9.4375 51.238281 -9.289062 51.125 -9.15625 C 51.007812 -9.019531 50.894531 -8.910156 50.78125 -8.828125 C 49.332031 -7.617188 47.789062 -6.566406 46.15625 -5.671875 C 44.519531 -4.773438 42.726562 -4.171875 40.78125 -3.859375 C 39.875 -3.742188 38.972656 -3.695312 38.078125 -3.71875 C 37.179688 -3.738281 36.285156 -3.863281 35.390625 -4.09375 C 33.867188 -4.445312 32.546875 -5.1875 31.421875 -6.3125 C 31.296875 -6.46875 31.164062 -6.632812 31.03125 -6.8125 C 30.894531 -6.988281 30.710938 -7.210938 30.484375 -7.484375 C 30.171875 -6.203125 29.867188 -4.992188 29.578125 -3.859375 C 29.285156 -2.734375 29 -1.625 28.71875 -0.53125 C 28.332031 1.1875 27.835938 2.875 27.234375 4.53125 C 26.628906 6.1875 26.015625 7.851562 25.390625 9.53125 C 24.765625 11.207031 24.070312 12.863281 23.3125 14.5 C 22.550781 16.144531 21.722656 17.765625 20.828125 19.359375 C 20.515625 19.910156 20.171875 20.445312 19.796875 20.96875 C 19.429688 21.5 19.035156 22 18.609375 22.46875 Z M 18.609375 22.46875 "/></g></g></g><g fill="#bb5167" fill-opacity="1"><g transform="translate(221.548429, 188.666164)"><g><path d="M -1.703125 26.03125 C -2.671875 28.289062 -3.648438 30.59375 -4.640625 32.9375 C -5.640625 35.28125 -6.742188 37.539062 -7.953125 39.71875 C -9.554688 42.6875 -11.273438 45.582031 -13.109375 48.40625 C -14.941406 51.238281 -17.066406 53.863281 -19.484375 56.28125 C -20.847656 57.6875 -22.304688 58.960938 -23.859375 60.109375 C -25.421875 61.253906 -27.117188 62.179688 -28.953125 62.890625 C -34.492188 65.066406 -39.722656 64.519531 -44.640625 61.25 C -45.847656 60.425781 -46.78125 59.429688 -47.4375 58.265625 C -48.101562 57.097656 -48.671875 55.867188 -49.140625 54.578125 C -49.878906 52.472656 -50.257812 50.347656 -50.28125 48.203125 C -50.300781 46.054688 -50.078125 43.890625 -49.609375 41.703125 C -49.054688 39.171875 -48.175781 36.820312 -46.96875 34.65625 C -45.757812 32.5 -44.359375 30.441406 -42.765625 28.484375 C -39.992188 25.171875 -36.921875 22.285156 -33.546875 19.828125 C -30.171875 17.367188 -26.554688 15.242188 -22.703125 13.453125 C -20.003906 12.203125 -17.238281 11.1875 -14.40625 10.40625 C -11.582031 9.632812 -8.691406 9.109375 -5.734375 8.828125 C -4.640625 8.753906 -3.554688 8.726562 -2.484375 8.75 C -1.410156 8.769531 -0.328125 8.816406 0.765625 8.890625 C 1.347656 8.929688 1.707031 8.910156 1.84375 8.828125 C 1.976562 8.753906 2.144531 8.460938 2.34375 7.953125 C 3.625 4.953125 4.984375 1.988281 6.421875 -0.9375 C 7.867188 -3.863281 9.429688 -6.710938 11.109375 -9.484375 C 11.304688 -9.785156 11.503906 -10.082031 11.703125 -10.375 C 11.898438 -10.675781 12.015625 -11.019531 12.046875 -11.40625 C 11.347656 -11.019531 10.710938 -10.550781 10.140625 -10 C 9.578125 -9.457031 9.003906 -8.910156 8.421875 -8.359375 C 7.210938 -7.148438 6.003906 -5.921875 4.796875 -4.671875 C 3.585938 -3.429688 2.359375 -2.222656 1.109375 -1.046875 C 0.679688 -0.660156 0.175781 -0.3125 -0.40625 0 C -1.34375 0.507812 -2.226562 0.503906 -3.0625 -0.015625 C -3.90625 -0.546875 -4.304688 -1.34375 -4.265625 -2.40625 C -4.265625 -3.300781 -4.109375 -4.144531 -3.796875 -4.9375 C -3.484375 -5.738281 -3.132812 -6.507812 -2.75 -7.25 C -0.914062 -10.757812 1.5625 -13.609375 4.6875 -15.796875 C 5.113281 -16.109375 5.5625 -16.367188 6.03125 -16.578125 C 6.5 -16.796875 6.984375 -16.984375 7.484375 -17.140625 C 9.242188 -17.722656 10.921875 -17.429688 12.515625 -16.265625 C 12.828125 -15.992188 13.082031 -15.875 13.28125 -15.90625 C 13.476562 -15.945312 13.710938 -16.066406 13.984375 -16.265625 C 14.410156 -16.648438 14.847656 -17.007812 15.296875 -17.34375 C 15.742188 -17.675781 16.203125 -18 16.671875 -18.3125 C 17.023438 -18.539062 17.585938 -18.613281 18.359375 -18.53125 C 19.140625 -18.457031 19.671875 -18.285156 19.953125 -18.015625 C 20.109375 -17.859375 20.164062 -17.722656 20.125 -17.609375 C 20.082031 -17.492188 20.023438 -17.394531 19.953125 -17.3125 C 19.710938 -17 19.46875 -16.6875 19.21875 -16.375 C 18.96875 -16.0625 18.742188 -15.75 18.546875 -15.4375 C 17.410156 -13.757812 16.328125 -12.0625 15.296875 -10.34375 C 14.265625 -8.632812 13.28125 -6.882812 12.34375 -5.09375 C 11.25 -3.019531 10.191406 -0.929688 9.171875 1.171875 C 8.160156 3.273438 7.171875 5.378906 6.203125 7.484375 C 5.847656 8.222656 5.640625 8.738281 5.578125 9.03125 C 5.523438 9.332031 5.644531 9.507812 5.9375 9.5625 C 6.226562 9.625 6.722656 9.710938 7.421875 9.828125 C 8.597656 9.941406 9.75 10.179688 10.875 10.546875 C 12.007812 10.921875 13.125 11.328125 14.21875 11.765625 C 14.21875 11.765625 14.296875 11.800781 14.453125 11.875 C 14.523438 11.957031 14.628906 12.035156 14.765625 12.109375 C 14.898438 12.179688 14.929688 12.296875 14.859375 12.453125 C 14.816406 12.609375 14.726562 12.695312 14.59375 12.71875 C 14.457031 12.738281 14.332031 12.75 14.21875 12.75 C 13.664062 12.675781 13.125 12.609375 12.59375 12.546875 C 12.070312 12.484375 11.539062 12.414062 11 12.34375 C 10.101562 12.1875 9.207031 12.03125 8.3125 11.875 C 7.414062 11.71875 6.515625 11.539062 5.609375 11.34375 C 4.953125 11.1875 4.488281 11.460938 4.21875 12.171875 C 3.238281 14.472656 2.257812 16.78125 1.28125 19.09375 C 0.3125 21.414062 -0.679688 23.726562 -1.703125 26.03125 Z M 11.234375 -14.046875 C 11.347656 -14.117188 11.453125 -14.203125 11.546875 -14.296875 C 11.648438 -14.398438 11.660156 -14.53125 11.578125 -14.6875 C 11.460938 -14.957031 11.210938 -15.128906 10.828125 -15.203125 C 10.585938 -15.203125 10.359375 -15.160156 10.140625 -15.078125 C 9.929688 -15.003906 9.726562 -14.929688 9.53125 -14.859375 C 8.675781 -14.472656 7.859375 -14.003906 7.078125 -13.453125 C 6.296875 -12.910156 5.570312 -12.304688 4.90625 -11.640625 C 3.664062 -10.503906 2.523438 -9.285156 1.484375 -7.984375 C 0.453125 -6.679688 -0.390625 -5.25 -1.046875 -3.6875 C -1.203125 -3.375 -1.335938 -3.050781 -1.453125 -2.71875 C -1.578125 -2.382812 -1.597656 -1.984375 -1.515625 -1.515625 C -1.015625 -1.828125 -0.585938 -2.140625 -0.234375 -2.453125 C 0.117188 -2.765625 0.46875 -3.078125 0.8125 -3.390625 C 2.613281 -5.109375 4.332031 -6.898438 5.96875 -8.765625 C 7.601562 -10.640625 9.359375 -12.398438 11.234375 -14.046875 Z M -18.1875 50.546875 C -16.164062 47.660156 -14.316406 44.644531 -12.640625 41.5 C -10.960938 38.363281 -9.398438 35.195312 -7.953125 32 C -6.703125 29.1875 -5.460938 26.359375 -4.234375 23.515625 C -3.015625 20.671875 -1.796875 17.820312 -0.578125 14.96875 C -0.347656 14.425781 -0.117188 13.878906 0.109375 13.328125 C 0.347656 12.785156 0.582031 12.242188 0.8125 11.703125 C 0.96875 11.347656 1.003906 11.113281 0.921875 11 C 0.847656 10.882812 0.617188 10.804688 0.234375 10.765625 C -0.347656 10.679688 -0.929688 10.640625 -1.515625 10.640625 C -2.109375 10.640625 -2.710938 10.660156 -3.328125 10.703125 C -6.335938 10.742188 -9.265625 11.15625 -12.109375 11.9375 C -14.953125 12.71875 -17.738281 13.726562 -20.46875 14.96875 C -24.445312 16.726562 -28.171875 18.835938 -31.640625 21.296875 C -35.117188 23.753906 -38.257812 26.675781 -41.0625 30.0625 C -43.207031 32.675781 -44.90625 35.472656 -46.15625 38.453125 C -47.40625 41.441406 -48.050781 44.671875 -48.09375 48.140625 C -48.207031 50.910156 -47.640625 53.601562 -46.390625 56.21875 C -45.960938 57.195312 -45.453125 58.125 -44.859375 59 C -44.273438 59.875 -43.5 60.601562 -42.53125 61.1875 C -40.582031 62.363281 -38.414062 62.910156 -36.03125 62.828125 C -34.238281 62.753906 -32.550781 62.40625 -30.96875 61.78125 C -29.394531 61.15625 -27.90625 60.316406 -26.5 59.265625 C -24.863281 58.054688 -23.363281 56.71875 -22 55.25 C -20.632812 53.789062 -19.363281 52.222656 -18.1875 50.546875 Z M -18.1875 50.546875 "/></g></g></g><g fill="#bb5167" fill-opacity="1"><g transform="translate(93.451681, 225.340796)"><g><path d="M 4.28125 9.328125 L 10.96875 1.234375 L 0.609375 2.890625 L 9.890625 -5.4375 L 10.484375 -4.40625 L 4.234375 1.171875 L 13.609375 -0.265625 L 7.59375 7.078125 L 15.578125 4.53125 L 16.171875 5.5625 Z M 4.28125 9.328125 "/></g></g></g><g fill="#bb5167" fill-opacity="1"><g transform="translate(104.325745, 242.746115)"><g><path d="M 5.078125 6.109375 L 0.796875 0.96875 L 9.484375 -6.25 L 13.765625 -1.109375 L 12.9375 -0.421875 L 9.390625 -4.6875 L 6.296875 -2.125 L 9.75 2.03125 L 8.90625 2.75 L 5.453125 -1.40625 L 2.359375 1.15625 L 5.90625 5.421875 Z M 5.078125 6.109375 "/></g></g></g><g fill="#bb5167" fill-opacity="1"><g transform="translate(115.40544, 255.211177)"><g><path d="M 11.265625 2.28125 C 10.734375 2.894531 10.128906 3.363281 9.453125 3.6875 C 8.765625 4.007812 8.0625 4.191406 7.34375 4.234375 C 6.613281 4.273438 5.894531 4.164062 5.1875 3.90625 C 4.46875 3.664062 3.800781 3.28125 3.1875 2.75 L 0.953125 0.8125 L 8.34375 -7.734375 L 10.578125 -5.796875 C 11.191406 -5.265625 11.671875 -4.664062 12.015625 -4 C 12.359375 -3.3125 12.566406 -2.613281 12.640625 -1.90625 C 12.710938 -1.1875 12.632812 -0.46875 12.40625 0.25 C 12.1875 0.976562 11.804688 1.65625 11.265625 2.28125 Z M 10.421875 1.546875 C 11.265625 0.566406 11.625 -0.546875 11.5 -1.796875 C 11.375 -2.992188 10.816406 -4.023438 9.828125 -4.890625 L 8.453125 -6.078125 L 2.578125 0.703125 L 3.953125 1.890625 C 4.941406 2.753906 6.050781 3.15625 7.28125 3.09375 C 8.539062 3.03125 9.585938 2.515625 10.421875 1.546875 Z M 10.421875 1.546875 "/></g></g></g><g fill="#bb5167" fill-opacity="1"><g transform="translate(129.647908, 266.661682)"><g><path d="M 11.5 0.3125 C 11.082031 1.007812 10.566406 1.578125 9.953125 2.015625 C 9.328125 2.453125 8.660156 2.753906 7.953125 2.921875 C 7.253906 3.078125 6.53125 3.085938 5.78125 2.953125 C 5.03125 2.835938 4.304688 2.570312 3.609375 2.15625 L 1.078125 0.640625 L 6.890625 -9.046875 L 9.421875 -7.53125 C 10.117188 -7.113281 10.695312 -6.601562 11.15625 -6 C 11.613281 -5.394531 11.9375 -4.742188 12.125 -4.046875 C 12.320312 -3.335938 12.375 -2.613281 12.28125 -1.875 C 12.175781 -1.113281 11.914062 -0.382812 11.5 0.3125 Z M 10.53125 -0.265625 C 11.1875 -1.367188 11.347656 -2.523438 11.015625 -3.734375 C 10.679688 -4.910156 9.953125 -5.835938 8.828125 -6.515625 L 7.265625 -7.453125 L 2.65625 0.25 L 4.21875 1.1875 C 5.34375 1.863281 6.503906 2.066406 7.703125 1.796875 C 8.921875 1.523438 9.863281 0.835938 10.53125 -0.265625 Z M 10.53125 -0.265625 "/></g></g></g><g fill="#bb5167" fill-opacity="1"><g transform="translate(145.525749, 275.317659)"><g><path d="M 2.21875 0.9375 L 1.15625 0.484375 L 5.59375 -9.90625 L 6.65625 -9.453125 Z M 2.21875 0.9375 "/></g></g></g><g fill="#bb5167" fill-opacity="1"><g transform="translate(155.727714, 279.366915)"><g><path d="M 4.53125 -7.390625 L 2.3125 0.640625 L 1.203125 0.328125 L 4.40625 -11.25 L 8.109375 -0.84375 L 10.328125 -8.859375 L 11.453125 -8.5625 L 8.25 3 Z M 4.53125 -7.390625 "/></g></g></g><g fill="#bb5167" fill-opacity="1"><g transform="translate(172.78971, 283.525527)"><g><path d="M 12.8125 -4.15625 L 12.640625 -3.46875 C 12.265625 -2.125 11.492188 -1.0625 10.328125 -0.28125 C 9.160156 0.507812 7.890625 0.847656 6.515625 0.734375 C 5.722656 0.660156 4.988281 0.4375 4.3125 0.0625 C 3.625 -0.300781 3.046875 -0.773438 2.578125 -1.359375 C 2.109375 -1.921875 1.757812 -2.566406 1.53125 -3.296875 C 1.28125 -4.035156 1.191406 -4.8125 1.265625 -5.625 C 1.328125 -6.40625 1.550781 -7.132812 1.9375 -7.8125 C 2.289062 -8.5 2.75 -9.078125 3.3125 -9.546875 C 3.882812 -10.015625 4.535156 -10.375 5.265625 -10.625 C 6.003906 -10.863281 6.726562 -10.953125 7.4375 -10.890625 C 8.789062 -10.773438 9.941406 -10.285156 10.890625 -9.421875 C 11.867188 -8.578125 12.488281 -7.515625 12.75 -6.234375 L 11.515625 -6.34375 C 11.242188 -7.289062 10.75 -8.066406 10.03125 -8.671875 C 9.269531 -9.273438 8.410156 -9.617188 7.453125 -9.703125 C 6.179688 -9.816406 5.046875 -9.46875 4.046875 -8.65625 C 3.078125 -7.832031 2.535156 -6.785156 2.421875 -5.515625 C 2.304688 -4.234375 2.65625 -3.09375 3.46875 -2.09375 C 4.289062 -1.113281 5.34375 -0.5625 6.625 -0.4375 C 7.644531 -0.351562 8.597656 -0.566406 9.484375 -1.078125 C 10.359375 -1.585938 11.003906 -2.316406 11.421875 -3.265625 L 6.859375 -3.671875 L 6.953125 -4.6875 Z M 12.8125 -4.15625 "/></g></g></g><g fill="#bb5167" fill-opacity="1"><g transform="translate(193.301807, 284.466568)"><g/></g></g><g fill="#bb5167" fill-opacity="1"><g transform="translate(205.031425, 283.373396)"><g><path d="M 5.859375 -11.546875 L 0.40625 -10.484375 L 1.171875 -6.546875 L 6.46875 -7.578125 L 6.6875 -6.484375 L 1.390625 -5.453125 L 2.359375 -0.453125 L 1.234375 -0.234375 L -0.921875 -11.328125 L 5.65625 -12.609375 Z M 5.859375 -11.546875 "/></g></g></g><g fill="#bb5167" fill-opacity="1"><g transform="translate(220.257513, 279.827886)"><g><path d="M 1.90625 -1.875 L 5.703125 -3.203125 L 6.078125 -2.109375 L 2.28125 -0.78125 L 1.1875 -0.40625 L -2.5 -11.078125 L -1.40625 -11.453125 Z M 1.90625 -1.875 "/></g></g></g><g fill="#bb5167" fill-opacity="1"><g transform="translate(233.61716, 274.835879)"><g><path d="M 7.109375 -10.328125 C 6.503906 -11.441406 5.59375 -12.1875 4.375 -12.5625 C 3.132812 -12.914062 1.953125 -12.789062 0.828125 -12.1875 C -0.285156 -11.582031 -1.023438 -10.664062 -1.390625 -9.4375 C -1.765625 -8.195312 -1.648438 -7.019531 -1.046875 -5.90625 C -0.421875 -4.769531 0.503906 -4.019531 1.734375 -3.65625 C 2.972656 -3.300781 4.148438 -3.425781 5.265625 -4.03125 C 6.390625 -4.632812 7.132812 -5.550781 7.5 -6.78125 C 7.863281 -8.007812 7.734375 -9.191406 7.109375 -10.328125 Z M 8.140625 -10.890625 C 8.523438 -10.179688 8.757812 -9.445312 8.84375 -8.6875 C 8.894531 -7.914062 8.820312 -7.175781 8.625 -6.46875 C 8.40625 -5.75 8.054688 -5.082031 7.578125 -4.46875 C 7.097656 -3.863281 6.507812 -3.375 5.8125 -3 C 5.113281 -2.613281 4.382812 -2.390625 3.625 -2.328125 C 2.851562 -2.265625 2.113281 -2.34375 1.40625 -2.5625 C 0.6875 -2.769531 0.0351562 -3.113281 -0.546875 -3.59375 C -1.171875 -4.0625 -1.675781 -4.648438 -2.0625 -5.359375 C -2.4375 -6.054688 -2.648438 -6.789062 -2.703125 -7.5625 C -2.796875 -8.320312 -2.726562 -9.054688 -2.5 -9.765625 C -2.289062 -10.472656 -1.953125 -11.132812 -1.484375 -11.75 C -1.003906 -12.34375 -0.414062 -12.832031 0.28125 -13.21875 C 0.976562 -13.59375 1.707031 -13.816406 2.46875 -13.890625 C 3.25 -13.953125 4 -13.878906 4.71875 -13.671875 C 5.40625 -13.460938 6.0625 -13.125 6.6875 -12.65625 C 7.28125 -12.175781 7.765625 -11.585938 8.140625 -10.890625 Z M 8.140625 -10.890625 "/></g></g></g><g fill="#bb5167" fill-opacity="1"><g transform="translate(251.32945, 264.274101)"><g><path d="M -1.59375 -5.859375 L 0.46875 -7.5 C 0.976562 -7.90625 1.257812 -8.414062 1.3125 -9.03125 C 1.363281 -9.65625 1.179688 -10.226562 0.765625 -10.75 C 0.359375 -11.257812 -0.140625 -11.550781 -0.734375 -11.625 C -1.304688 -11.707031 -1.863281 -11.535156 -2.40625 -11.109375 L -4.46875 -9.46875 Z M 1.703125 -11.4375 C 2.316406 -10.664062 2.550781 -9.804688 2.40625 -8.859375 C 2.289062 -8.015625 1.90625 -7.304688 1.25 -6.734375 L 6.765625 -5.375 L 5.53125 -4.40625 L 0.171875 -5.84375 L -0.90625 -5 L 1.875 -1.5 L 0.984375 -0.78125 L -6.046875 -9.625 L -3.234375 -11.875 C -2.441406 -12.5 -1.578125 -12.773438 -0.640625 -12.703125 C 0.316406 -12.617188 1.097656 -12.195312 1.703125 -11.4375 Z M 1.703125 -11.4375 "/></g></g></g><g fill="#bb5167" fill-opacity="1"><g transform="translate(263.68694, 253.619307)"><g><path d="M 1.671875 -1.734375 L 0.875 -0.890625 L -7.234375 -8.75 L -6.4375 -9.59375 Z M 1.671875 -1.734375 "/></g></g></g><g fill="#bb5167" fill-opacity="1"><g transform="translate(271.111491, 245.553071)"><g><path d="M -1.65625 -6.703125 C -3.457031 -5.171875 -4.929688 -4.832031 -6.078125 -5.6875 C -6.929688 -6.320312 -7.359375 -7.097656 -7.359375 -8.015625 C -7.328125 -8.910156 -7.007812 -9.757812 -6.40625 -10.5625 C -5.09375 -12.332031 -3.660156 -12.894531 -2.109375 -12.25 L -2.859375 -11.234375 C -3.785156 -11.640625 -4.707031 -11.222656 -5.625 -9.984375 C -6.28125 -9.109375 -6.472656 -8.304688 -6.203125 -7.578125 C -6.117188 -7.296875 -5.929688 -7.046875 -5.640625 -6.828125 C -5.078125 -6.410156 -4.414062 -6.390625 -3.65625 -6.765625 C -3.300781 -6.929688 -2.660156 -7.394531 -1.734375 -8.15625 C -0.804688 -8.894531 -0.0390625 -9.363281 0.5625 -9.5625 C 1.414062 -9.84375 2.207031 -9.710938 2.9375 -9.171875 C 3.863281 -8.484375 4.289062 -7.601562 4.21875 -6.53125 C 4.15625 -5.632812 3.796875 -4.742188 3.140625 -3.859375 C 1.648438 -1.859375 0.015625 -1.257812 -1.765625 -2.0625 L -0.9375 -3.1875 C 0.15625 -2.632812 1.234375 -3.066406 2.296875 -4.484375 C 3.046875 -5.492188 3.285156 -6.410156 3.015625 -7.234375 C 2.910156 -7.554688 2.671875 -7.859375 2.296875 -8.140625 C 1.921875 -8.421875 1.503906 -8.503906 1.046875 -8.390625 C 0.398438 -8.222656 -0.5 -7.660156 -1.65625 -6.703125 Z M -1.65625 -6.703125 "/></g></g></g><g fill="#bb5167" fill-opacity="1"><g transform="translate(280.686315, 231.599873)"><g><path d="M -8.890625 -5.125 L -9.84375 -5.625 L -8.546875 -8.046875 L -8.015625 -9.0625 L -6.71875 -11.484375 L -5.765625 -10.984375 L -7.0625 -8.5625 L 1.953125 -3.75 L 1.421875 -2.734375 L -7.59375 -7.546875 Z M -8.890625 -5.125 "/></g></g></g><g fill="#bb5167" fill-opacity="1"><g transform="translate(98.085375, 155.54613)"><g><path d="M -7.265625 -10.71875 L -8.984375 -5.4375 L -5.171875 -4.1875 L -3.5 -9.328125 L -2.4375 -9 L -4.109375 -3.859375 L 0.734375 -2.28125 L 0.390625 -1.1875 L -10.359375 -4.671875 L -8.296875 -11.046875 Z M -7.265625 -10.71875 "/></g></g></g><g fill="#bb5167" fill-opacity="1"><g transform="translate(102.914692, 142.168017)"><g><path d="M 0.015625 -2.65625 L 1.78125 -6.28125 L 2.828125 -5.78125 L 1.0625 -2.15625 L 0.796875 -1.640625 L 0.546875 -1.125 L -9.609375 -6.078125 L -9.09375 -7.109375 Z M 0.015625 -2.65625 "/></g></g></g><g fill="#bb5167" fill-opacity="1"><g transform="translate(108.640912, 130.928768)"><g><path d="M 1.84375 -12.421875 C 0.8125 -13.160156 -0.335938 -13.421875 -1.609375 -13.203125 C -2.867188 -12.984375 -3.867188 -12.351562 -4.609375 -11.3125 C -5.347656 -10.269531 -5.613281 -9.113281 -5.40625 -7.84375 C -5.1875 -6.582031 -4.5625 -5.582031 -3.53125 -4.84375 C -2.476562 -4.09375 -1.320312 -3.828125 -0.0625 -4.046875 C 1.207031 -4.265625 2.210938 -4.894531 2.953125 -5.9375 C 3.691406 -6.976562 3.953125 -8.132812 3.734375 -9.40625 C 3.523438 -10.664062 2.894531 -11.671875 1.84375 -12.421875 Z M 2.515625 -13.375 C 3.171875 -12.90625 3.703125 -12.34375 4.109375 -11.6875 C 4.503906 -11.019531 4.765625 -10.328125 4.890625 -9.609375 C 5.015625 -8.859375 4.992188 -8.109375 4.828125 -7.359375 C 4.671875 -6.597656 4.363281 -5.898438 3.90625 -5.265625 C 3.4375 -4.609375 2.875 -4.082031 2.21875 -3.6875 C 1.5625 -3.289062 0.867188 -3.035156 0.140625 -2.921875 C -0.597656 -2.773438 -1.335938 -2.796875 -2.078125 -2.984375 C -2.835938 -3.128906 -3.546875 -3.4375 -4.203125 -3.90625 C -4.847656 -4.363281 -5.367188 -4.925781 -5.765625 -5.59375 C -6.171875 -6.238281 -6.429688 -6.929688 -6.546875 -7.671875 C -6.671875 -8.398438 -6.65625 -9.140625 -6.5 -9.890625 C -6.34375 -10.640625 -6.03125 -11.34375 -5.5625 -12 C -5.101562 -12.632812 -4.546875 -13.15625 -3.890625 -13.5625 C -3.222656 -13.957031 -2.523438 -14.222656 -1.796875 -14.359375 C -1.066406 -14.484375 -0.328125 -14.460938 0.421875 -14.296875 C 1.171875 -14.140625 1.867188 -13.832031 2.515625 -13.375 Z M 2.515625 -13.375 "/></g></g></g><g fill="#bb5167" fill-opacity="1"><g transform="translate(119.970701, 115.95025)"><g><path d="M 8.046875 -6.375 L -1.390625 -10.96875 L 2.671875 -1.28125 L -7.640625 -8.328125 L -6.78125 -9.140625 L 0.140625 -4.390625 L -3.484375 -13.171875 L 5.0625 -9.0625 L 0.703125 -16.21875 L 1.5625 -17.03125 Z M 8.046875 -6.375 "/></g></g></g><g fill="#bb5167" fill-opacity="1"><g transform="translate(134.050807, 103.553599)"><g><path d="M 6.640625 -4.375 L 1.046875 -0.6875 L -5.171875 -10.125 L 0.421875 -13.8125 L 1.015625 -12.90625 L -3.609375 -9.859375 L -1.390625 -6.515625 L 3.109375 -9.46875 L 3.71875 -8.53125 L -0.78125 -5.578125 L 1.421875 -2.234375 L 6.046875 -5.28125 Z M 6.640625 -4.375 "/></g></g></g><g fill="#bb5167" fill-opacity="1"><g transform="translate(146.879551, 95.660748)"><g><path d="M -0.125 -6.078125 L 2.265625 -7.15625 C 2.867188 -7.425781 3.269531 -7.851562 3.46875 -8.4375 C 3.675781 -9.019531 3.640625 -9.617188 3.359375 -10.234375 C 3.085938 -10.828125 2.675781 -11.234375 2.125 -11.453125 C 1.570312 -11.671875 0.984375 -11.640625 0.359375 -11.359375 L -2.03125 -10.28125 Z M 4.4375 -10.6875 C 4.851562 -9.78125 4.875 -8.890625 4.5 -8.015625 C 4.175781 -7.234375 3.625 -6.632812 2.84375 -6.21875 L 7.875 -3.578125 L 6.4375 -2.921875 L 1.578125 -5.625 L 0.34375 -5.0625 L 2.1875 -1 L 1.140625 -0.515625 L -3.53125 -10.796875 L -0.25 -12.296875 C 0.675781 -12.710938 1.582031 -12.773438 2.46875 -12.484375 C 3.382812 -12.171875 4.039062 -11.570312 4.4375 -10.6875 Z M 4.4375 -10.6875 "/></g></g></g><g fill="#bb5167" fill-opacity="1"><g transform="translate(160.758742, 89.961045)"><g/></g></g><g fill="#bb5167" fill-opacity="1"><g transform="translate(170.732658, 87.077214)"><g><path d="M 10.234375 -0.546875 L 5.203125 -9.75 L 2.90625 0.5 L -1.421875 -11.21875 L -0.25 -11.375 L 2.640625 -3.5 L 4.765625 -12.75 L 9.375 -4.453125 L 9.953125 -12.828125 L 11.125 -13 Z M 10.234375 -0.546875 "/></g></g></g><g fill="#bb5167" fill-opacity="1"><g transform="translate(189.525306, 85.197042)"><g><path d="M 2.40625 0.015625 L 1.25 0.015625 L 1.328125 -11.28125 L 2.484375 -11.28125 Z M 2.40625 0.015625 "/></g></g></g><g fill="#bb5167" fill-opacity="1"><g transform="translate(199.217139, 85.518384)"><g><path d="M 1.625 -10.125 L 1.765625 -11.1875 L 4.484375 -10.84375 L 5.640625 -10.703125 L 8.34375 -10.34375 L 8.203125 -9.28125 L 5.5 -9.640625 L 4.203125 0.5 L 3.046875 0.359375 L 4.34375 -9.78125 Z M 1.625 -10.125 "/></g></g></g><g fill="#bb5167" fill-opacity="1"><g transform="translate(212.260071, 87.533778)"><g><path d="M 2.3125 0.65625 L 1.203125 0.34375 L 4.3125 -10.515625 L 5.421875 -10.203125 L 4.015625 -5.328125 L 8.953125 -3.90625 L 10.359375 -8.78125 L 11.484375 -8.46875 L 8.375 2.390625 L 7.25 2.078125 L 8.640625 -2.78125 L 3.703125 -4.203125 Z M 2.3125 0.65625 "/></g></g></g><g fill="#bb5167" fill-opacity="1"><g transform="translate(227.367709, 92.468506)"><g/></g></g><g fill="#bb5167" fill-opacity="1"><g transform="translate(236.815138, 96.768388)"><g><path d="M 13.28125 2.21875 L 12.8125 2.75 C 11.863281 3.757812 10.691406 4.347656 9.296875 4.515625 C 7.890625 4.679688 6.609375 4.394531 5.453125 3.65625 C 4.773438 3.226562 4.222656 2.6875 3.796875 2.03125 C 3.359375 1.394531 3.0625 0.71875 2.90625 0 C 2.738281 -0.726562 2.726562 -1.472656 2.875 -2.234375 C 2.988281 -2.992188 3.257812 -3.71875 3.6875 -4.40625 C 4.113281 -5.070312 4.65625 -5.617188 5.3125 -6.046875 C 5.9375 -6.484375 6.613281 -6.78125 7.34375 -6.9375 C 8.0625 -7.101562 8.804688 -7.128906 9.578125 -7.015625 C 10.335938 -6.878906 11.019531 -6.617188 11.625 -6.234375 C 12.769531 -5.503906 13.566406 -4.539062 14.015625 -3.34375 C 14.484375 -2.132812 14.539062 -0.90625 14.1875 0.34375 L 13.140625 -0.3125 C 13.335938 -1.28125 13.25 -2.203125 12.875 -3.078125 C 12.488281 -3.960938 11.894531 -4.664062 11.09375 -5.1875 C 10.007812 -5.875 8.84375 -6.082031 7.59375 -5.8125 C 6.34375 -5.53125 5.367188 -4.851562 4.671875 -3.78125 C 3.984375 -2.695312 3.773438 -1.523438 4.046875 -0.265625 C 4.316406 0.984375 5 1.957031 6.09375 2.65625 C 6.957031 3.207031 7.894531 3.460938 8.90625 3.421875 C 9.925781 3.359375 10.835938 3.007812 11.640625 2.375 L 7.78125 -0.09375 L 8.328125 -0.953125 Z M 13.28125 2.21875 "/></g></g></g><g fill="#bb5167" fill-opacity="1"><g transform="translate(252.357296, 107.510594)"><g><path d="M 5.546875 -2.484375 L 7.484375 -0.703125 C 7.960938 -0.253906 8.507812 -0.0507812 9.125 -0.09375 C 9.75 -0.132812 10.285156 -0.398438 10.734375 -0.890625 C 11.179688 -1.367188 11.394531 -1.910156 11.375 -2.515625 C 11.363281 -3.097656 11.109375 -3.625 10.609375 -4.09375 L 8.671875 -5.875 Z M 11.5625 -0.09375 C 10.894531 0.632812 10.085938 1.003906 9.140625 1.015625 C 8.285156 1.023438 7.519531 0.753906 6.84375 0.203125 L 6.359375 5.84375 L 5.203125 4.796875 L 5.796875 -0.734375 L 4.796875 -1.65625 L 1.765625 1.625 L 0.921875 0.84375 L 8.578125 -7.46875 L 11.234375 -5.015625 C 11.972656 -4.335938 12.378906 -3.53125 12.453125 -2.59375 C 12.515625 -1.632812 12.21875 -0.800781 11.5625 -0.09375 Z M 11.5625 -0.09375 "/></g></g></g><g fill="#bb5167" fill-opacity="1"><g transform="translate(263.012069, 117.887254)"><g><path d="M 5.171875 -0.140625 L 7.6875 3.078125 L 10.515625 -1.734375 Z M 6.21875 7.921875 L 5.4375 6.9375 L 7.125 4.078125 L 4.046875 0.171875 L 0.875 1.125 L 0.109375 0.140625 L 12.671875 -3.421875 Z M 6.21875 7.921875 "/></g></g></g><g fill="#bb5167" fill-opacity="1"><g transform="translate(272.561211, 130.746978)"><g><path d="M 8.5 8.625 C 7.34375 8.769531 6.253906 8.570312 5.234375 8.03125 C 4.179688 7.5 3.382812 6.722656 2.84375 5.703125 C 2.101562 4.328125 1.984375 2.878906 2.484375 1.359375 C 2.984375 -0.128906 3.929688 -1.242188 5.328125 -1.984375 C 6.023438 -2.359375 6.75 -2.585938 7.5 -2.671875 C 8.25 -2.734375 8.976562 -2.664062 9.6875 -2.46875 C 11.21875 -2.03125 12.351562 -1.125 13.09375 0.25 C 13.632812 1.269531 13.84375 2.347656 13.71875 3.484375 C 13.582031 4.648438 13.140625 5.671875 12.390625 6.546875 L 11.78125 5.421875 C 12.476562 4.347656 12.703125 3.195312 12.453125 1.96875 C 12.378906 1.5625 12.21875 1.128906 11.96875 0.671875 C 11.726562 0.210938 11.367188 -0.195312 10.890625 -0.5625 C 10.410156 -0.9375 9.890625 -1.195312 9.328125 -1.34375 C 8.128906 -1.6875 6.972656 -1.554688 5.859375 -0.953125 C 4.753906 -0.367188 4.007812 0.515625 3.625 1.703125 C 3.226562 2.898438 3.320312 4.046875 3.90625 5.140625 C 4.300781 5.890625 4.859375 6.472656 5.578125 6.890625 C 6.296875 7.296875 7.070312 7.492188 7.90625 7.484375 Z M 8.5 8.625 "/></g></g></g><g fill="#bb5167" fill-opacity="1"><g transform="translate(280.418732, 146.812803)"><g><path d="M 2.484375 7.546875 L 0.390625 1.1875 L 11.125 -2.34375 L 13.21875 4.015625 L 12.1875 4.359375 L 10.453125 -0.90625 L 6.640625 0.34375 L 8.328125 5.46875 L 7.28125 5.8125 L 5.59375 0.6875 L 1.78125 1.9375 L 3.515625 7.203125 Z M 2.484375 7.546875 "/></g></g></g><g clip-path="url(#824f9f4c4f)"><g clip-path="url(#f440de0a81)"><g clip-path="url(#cf08138081)"><path fill="#bb5167" d="M 33.242188 168.386719 C 33.207031 168.261719 33.199219 168.140625 33.207031 168.042969 C 33.261719 167.589844 33.6875 167.25 34.144531 167.300781 C 34.597656 167.355469 34.9375 167.78125 34.886719 168.234375 C 34.855469 168.5 34.707031 168.726562 34.496094 168.871094 C 38.859375 176.355469 50.558594 179.097656 64.457031 179.351562 C 87.679688 179.746094 117.027344 173.074219 129.339844 169.578125 C 129.792969 169.433594 130.1875 169.359375 130.582031 169.304688 C 131.59375 169.15625 132.40625 169.273438 132.980469 169.554688 C 133.625 169.871094 134.007812 170.328125 134.167969 170.855469 C 134.203125 170.957031 134.214844 171.054688 134.230469 171.128906 C 134.273438 171.402344 134.078125 171.621094 133.832031 171.667969 C 133.558594 171.707031 133.339844 171.511719 133.292969 171.265625 C 133.277344 171.214844 133.28125 171.167969 133.261719 171.117188 C 133.171875 170.839844 132.984375 170.597656 132.59375 170.410156 C 132.175781 170.214844 131.558594 170.121094 130.71875 170.242188 C 130.394531 170.304688 130 170.378906 129.597656 170.480469 C 117.234375 173.996094 87.769531 180.675781 64.421875 180.292969 C 49.773438 180.027344 37.523438 177.003906 33.261719 168.632812 C 33.222656 168.554688 33.207031 168.480469 33.214844 168.410156 Z M 33.242188 168.386719 " fill-opacity="1" fill-rule="evenodd"/></g></g></g></svg>